<svg xmlns="http://www.w3.org/2000/svg" xmlns:xlink="http://www.w3.org/1999/xlink" width="48" zoomAndPan="magnify" viewBox="0 0 36 36.000001" height="48" preserveAspectRatio="xMidYMid meet" version="1.0"><defs><g/><clipPath id="8c1d2c1a6f"><path d="M 0.488281 9 L 35.511719 9 L 35.511719 35.027344 L 0.488281 35.027344 Z M 0.488281 9 " clip-rule="nonzero"/></clipPath><clipPath id="9dc0719e86"><path d="M 0.488281 0 L 35.511719 0 L 35.511719 19 L 0.488281 19 Z M 0.488281 0 " clip-rule="nonzero"/></clipPath></defs><g fill="#ef49f2" fill-opacity="1"><g transform="translate(2.19831, 23.351352)"><g><path d="M 5.40625 0.25 C 4.414062 0.25 3.53125 0.09375 2.75 -0.21875 C 1.976562 -0.53125 1.363281 -0.984375 0.90625 -1.578125 C 0.457031 -2.171875 0.234375 -2.882812 0.234375 -3.71875 L 3.09375 -3.71875 C 3.09375 -3.320312 3.195312 -3 3.40625 -2.75 C 3.613281 -2.507812 3.890625 -2.335938 4.234375 -2.234375 C 4.585938 -2.128906 4.976562 -2.078125 5.40625 -2.078125 C 5.925781 -2.078125 6.328125 -2.164062 6.609375 -2.34375 C 6.890625 -2.53125 7.03125 -2.769531 7.03125 -3.0625 C 7.03125 -3.363281 6.90625 -3.597656 6.65625 -3.765625 C 6.414062 -3.941406 6.082031 -4.09375 5.65625 -4.21875 C 5.226562 -4.34375 4.75 -4.484375 4.21875 -4.640625 C 3.570312 -4.828125 2.96875 -5.054688 2.40625 -5.328125 C 1.84375 -5.609375 1.390625 -5.972656 1.046875 -6.421875 C 0.710938 -6.867188 0.546875 -7.441406 0.546875 -8.140625 C 0.546875 -8.960938 0.742188 -9.628906 1.140625 -10.140625 C 1.535156 -10.648438 2.0625 -11.015625 2.71875 -11.234375 C 3.375 -11.460938 4.109375 -11.578125 4.921875 -11.578125 C 5.816406 -11.578125 6.617188 -11.425781 7.328125 -11.125 C 8.035156 -10.832031 8.609375 -10.410156 9.046875 -9.859375 C 9.484375 -9.316406 9.710938 -8.660156 9.734375 -7.890625 L 6.875 -7.890625 C 6.8125 -8.328125 6.609375 -8.660156 6.265625 -8.890625 C 5.921875 -9.128906 5.472656 -9.25 4.921875 -9.25 C 4.503906 -9.25 4.144531 -9.175781 3.84375 -9.03125 C 3.550781 -8.894531 3.40625 -8.664062 3.40625 -8.34375 C 3.40625 -8 3.582031 -7.742188 3.9375 -7.578125 C 4.300781 -7.410156 4.835938 -7.226562 5.546875 -7.03125 C 6.085938 -6.882812 6.613281 -6.722656 7.125 -6.546875 C 7.632812 -6.367188 8.097656 -6.144531 8.515625 -5.875 C 8.929688 -5.601562 9.265625 -5.257812 9.515625 -4.84375 C 9.765625 -4.4375 9.890625 -3.929688 9.890625 -3.328125 C 9.890625 -2.234375 9.492188 -1.363281 8.703125 -0.71875 C 7.921875 -0.0703125 6.820312 0.25 5.40625 0.25 Z M 5.40625 0.25 "/></g></g></g><g fill="#ef49f2" fill-opacity="1"><g transform="translate(12.452496, 23.351352)"><g><path d="M 0.640625 0 L 0.640625 -11.328125 L 3.171875 -11.328125 L 3.171875 0 Z M 0.640625 0 "/></g></g></g><g fill="#ef49f2" fill-opacity="1"><g transform="translate(16.256207, 23.351352)"><g><path d="M 1.890625 -9.078125 C 1.523438 -9.078125 1.222656 -9.171875 0.984375 -9.359375 C 0.742188 -9.554688 0.625 -9.835938 0.625 -10.203125 C 0.625 -10.578125 0.742188 -10.859375 0.984375 -11.046875 C 1.222656 -11.234375 1.523438 -11.328125 1.890625 -11.328125 C 2.242188 -11.328125 2.539062 -11.234375 2.78125 -11.046875 C 3.03125 -10.859375 3.15625 -10.578125 3.15625 -10.203125 C 3.15625 -9.835938 3.03125 -9.554688 2.78125 -9.359375 C 2.539062 -9.171875 2.242188 -9.078125 1.890625 -9.078125 Z M 0.625 0 L 0.625 -8.109375 L 3.15625 -8.109375 L 3.15625 0 Z M 0.625 0 "/></g></g></g><g fill="#ef49f2" fill-opacity="1"><g transform="translate(20.028229, 23.351352)"><g><path d="M 0.625 0 L 0.625 -8.109375 L 3.15625 -8.109375 L 3.15625 -6.9375 L 3.1875 -6.9375 C 3.394531 -7.3125 3.710938 -7.640625 4.140625 -7.921875 C 4.578125 -8.210938 5.101562 -8.359375 5.71875 -8.359375 C 6.25 -8.359375 6.695312 -8.226562 7.0625 -7.96875 C 7.425781 -7.707031 7.6875 -7.363281 7.84375 -6.9375 L 7.875 -6.9375 C 8.21875 -7.34375 8.59375 -7.679688 9 -7.953125 C 9.414062 -8.222656 9.945312 -8.359375 10.59375 -8.359375 C 11.40625 -8.359375 12.039062 -8.109375 12.5 -7.609375 C 12.96875 -7.117188 13.203125 -6.410156 13.203125 -5.484375 L 13.203125 0 L 10.625 0 L 10.625 -4.671875 C 10.625 -5.285156 10.546875 -5.710938 10.390625 -5.953125 C 10.234375 -6.191406 9.925781 -6.3125 9.46875 -6.3125 C 9.070312 -6.3125 8.753906 -6.179688 8.515625 -5.921875 C 8.273438 -5.660156 8.15625 -5.25 8.15625 -4.6875 L 8.15625 0 L 5.625 0 L 5.625 -4.671875 C 5.625 -5.285156 5.546875 -5.710938 5.390625 -5.953125 C 5.234375 -6.191406 4.925781 -6.3125 4.46875 -6.3125 C 4.070312 -6.3125 3.753906 -6.179688 3.515625 -5.921875 C 3.273438 -5.660156 3.15625 -5.25 3.15625 -4.6875 L 3.15625 0 Z M 0.625 0 "/></g></g></g><g clip-path="url(#8c1d2c1a6f)"><path fill="#ef49f2" d="M 20.375 10.78125 L 20.375 15.539062 L 22.132812 14.527344 C 22.117188 14.476562 22.113281 14.429688 22.113281 14.375 C 22.113281 14.089844 22.339844 13.859375 22.625 13.859375 C 22.910156 13.859375 23.144531 14.089844 23.144531 14.375 C 23.144531 14.664062 22.910156 14.894531 22.625 14.894531 C 22.476562 14.894531 22.347656 14.828125 22.246094 14.730469 L 20.375 15.808594 L 20.375 20.707031 C 20.480469 20.730469 20.566406 20.785156 20.636719 20.855469 L 29.230469 15.890625 C 29.21875 15.84375 29.210938 15.792969 29.210938 15.746094 C 29.210938 15.5 29.378906 15.296875 29.609375 15.242188 L 29.609375 10.78125 C 29.378906 10.726562 29.210938 10.519531 29.210938 10.28125 C 29.210938 9.996094 29.4375 9.761719 29.726562 9.761719 C 30.011719 9.761719 30.242188 9.996094 30.242188 10.28125 C 30.242188 10.519531 30.070312 10.726562 29.84375 10.78125 L 29.84375 15.242188 C 30.070312 15.296875 30.242188 15.5 30.242188 15.746094 C 30.242188 16.027344 30.011719 16.257812 29.726562 16.257812 C 29.574219 16.257812 29.445312 16.199219 29.351562 16.09375 L 20.753906 21.058594 C 20.769531 21.105469 20.773438 21.15625 20.773438 21.210938 C 20.773438 21.257812 20.769531 21.308594 20.753906 21.355469 L 24.617188 23.589844 C 24.710938 23.488281 24.847656 23.425781 24.996094 23.425781 C 25.277344 23.425781 25.507812 23.65625 25.507812 23.941406 C 25.507812 24.222656 25.277344 24.453125 24.996094 24.453125 C 24.847656 24.453125 24.710938 24.394531 24.617188 24.292969 L 20.753906 26.523438 C 20.769531 26.570312 20.773438 26.621094 20.773438 26.675781 C 20.773438 26.957031 20.542969 27.1875 20.261719 27.1875 C 19.976562 27.1875 19.746094 26.957031 19.746094 26.675781 C 19.746094 26.386719 19.976562 26.15625 20.261719 26.15625 C 20.40625 26.15625 20.539062 26.222656 20.636719 26.320312 L 24.496094 24.085938 C 24.488281 24.042969 24.476562 23.996094 24.476562 23.941406 C 24.476562 23.890625 24.488281 23.835938 24.496094 23.792969 L 20.636719 21.558594 C 20.539062 21.65625 20.40625 21.722656 20.261719 21.722656 C 20.113281 21.722656 19.976562 21.65625 19.882812 21.558594 L 17.390625 23 C 17.40625 23.050781 17.410156 23.097656 17.410156 23.148438 C 17.410156 23.433594 17.179688 23.667969 16.898438 23.667969 C 16.613281 23.667969 16.382812 23.433594 16.382812 23.148438 C 16.382812 22.863281 16.613281 22.632812 16.898438 22.632812 C 17.046875 22.632812 17.175781 22.695312 17.273438 22.796875 L 19.769531 21.355469 C 19.753906 21.308594 19.746094 21.257812 19.746094 21.210938 C 19.746094 20.964844 19.917969 20.761719 20.140625 20.707031 L 20.140625 15.945312 L 16.019531 18.328125 C 16.035156 18.371094 16.039062 18.425781 16.039062 18.472656 C 16.039062 18.757812 15.8125 18.988281 15.527344 18.988281 C 15.242188 18.988281 15.015625 18.757812 15.015625 18.472656 C 15.015625 18.191406 15.242188 17.960938 15.527344 17.960938 C 15.675781 17.960938 15.8125 18.019531 15.902344 18.125 L 20.140625 15.671875 L 20.140625 10.78125 C 19.917969 10.726562 19.746094 10.519531 19.746094 10.28125 C 19.746094 9.996094 19.976562 9.761719 20.261719 9.761719 C 20.542969 9.761719 20.773438 9.996094 20.773438 10.28125 C 20.773438 10.519531 20.605469 10.726562 20.375 10.78125 Z M 10.679688 16.339844 C 10.449219 16.289062 10.28125 16.082031 10.28125 15.835938 C 10.28125 15.554688 10.507812 15.324219 10.792969 15.324219 C 11.078125 15.324219 11.3125 15.554688 11.3125 15.835938 C 11.3125 16.082031 11.136719 16.289062 10.914062 16.339844 L 10.914062 20.800781 C 10.929688 20.792969 10.953125 20.792969 10.972656 20.792969 C 11.257812 20.792969 11.488281 21.023438 11.488281 21.308594 C 11.488281 21.363281 11.480469 21.410156 11.464844 21.460938 L 15.648438 23.875 L 15.648438 28.902344 C 15.871094 28.957031 16.039062 29.160156 16.039062 29.40625 C 16.039062 29.6875 15.8125 29.917969 15.527344 29.917969 C 15.242188 29.917969 15.015625 29.6875 15.015625 29.40625 C 15.015625 29.160156 15.183594 28.957031 15.40625 28.902344 L 15.40625 24.003906 L 11.351562 21.664062 C 11.253906 21.761719 11.121094 21.828125 10.972656 21.828125 C 10.691406 21.828125 10.457031 21.597656 10.457031 21.308594 C 10.457031 21.140625 10.542969 20.980469 10.679688 20.886719 Z M 1.089844 46.449219 C 0.808594 46.449219 0.578125 46.21875 0.578125 45.9375 C 0.578125 45.652344 0.808594 45.417969 1.089844 45.417969 C 1.246094 45.417969 1.375 45.484375 1.46875 45.582031 L 12.667969 39.117188 C 12.65625 39.066406 12.644531 39.019531 12.644531 38.96875 C 12.644531 38.6875 12.878906 38.453125 13.164062 38.453125 C 13.445312 38.453125 13.675781 38.6875 13.675781 38.96875 C 13.675781 39.253906 13.445312 39.484375 13.164062 39.484375 C 13.011719 39.484375 12.878906 39.421875 12.785156 39.320312 L 1.589844 45.785156 C 1.597656 45.832031 1.609375 45.882812 1.609375 45.9375 C 1.609375 46.21875 1.382812 46.449219 1.089844 46.449219 Z M 41.089844 24.136719 C 40.867188 24.082031 40.695312 23.875 40.695312 23.632812 C 40.695312 23.351562 40.925781 23.113281 41.210938 23.113281 C 41.492188 23.113281 41.722656 23.351562 41.722656 23.632812 C 41.722656 23.875 41.554688 24.082031 41.324219 24.136719 L 41.324219 26.359375 L 43.851562 27.816406 C 43.945312 27.71875 44.082031 27.652344 44.230469 27.652344 C 44.375 27.652344 44.511719 27.71875 44.605469 27.816406 L 49.742188 24.847656 C 49.730469 24.800781 49.722656 24.753906 49.722656 24.699219 C 49.722656 24.414062 49.957031 24.183594 50.238281 24.183594 C 50.523438 24.183594 50.753906 24.414062 50.753906 24.699219 C 50.753906 24.980469 50.523438 25.21875 50.238281 25.21875 C 50.09375 25.21875 49.957031 25.152344 49.863281 25.054688 L 44.71875 28.019531 C 44.738281 28.066406 44.742188 28.117188 44.742188 28.171875 C 44.742188 28.410156 44.574219 28.617188 44.347656 28.667969 L 44.347656 31.316406 L 46.132812 30.285156 C 46.117188 30.234375 46.113281 30.183594 46.113281 30.132812 C 46.113281 29.847656 46.339844 29.617188 46.625 29.617188 C 46.910156 29.617188 47.136719 29.847656 47.136719 30.132812 C 47.136719 30.421875 46.910156 30.648438 46.625 30.648438 C 46.476562 30.648438 46.347656 30.585938 46.25 30.484375 L 44.347656 31.582031 L 44.347656 34.664062 C 44.574219 34.71875 44.742188 34.917969 44.742188 35.164062 C 44.742188 35.449219 44.511719 35.679688 44.230469 35.679688 C 44.082031 35.679688 43.945312 35.617188 43.851562 35.515625 C 42.125 36.511719 40.394531 37.511719 38.664062 38.511719 C 38.675781 38.5625 38.6875 38.609375 38.6875 38.660156 C 38.6875 38.941406 38.457031 39.175781 38.175781 39.175781 C 37.882812 39.175781 37.65625 38.941406 37.65625 38.660156 C 37.65625 38.609375 37.667969 38.5625 37.675781 38.511719 C 35.945312 37.511719 34.214844 36.511719 32.492188 35.515625 C 32.398438 35.617188 32.261719 35.679688 32.113281 35.679688 C 31.828125 35.679688 31.601562 35.449219 31.601562 35.164062 C 31.601562 34.917969 31.769531 34.71875 31.992188 34.664062 L 31.992188 28.589844 C 31.765625 28.542969 31.589844 28.335938 31.589844 28.089844 C 31.589844 27.804688 31.820312 27.570312 32.101562 27.570312 C 32.277344 27.570312 32.4375 27.65625 32.527344 27.792969 C 34.242188 26.804688 35.960938 25.8125 37.675781 24.820312 C 37.667969 24.773438 37.65625 24.726562 37.65625 24.671875 C 37.65625 24.386719 37.882812 24.15625 38.175781 24.15625 C 38.457031 24.15625 38.6875 24.386719 38.6875 24.671875 C 38.6875 24.726562 38.675781 24.773438 38.664062 24.820312 L 41.089844 26.222656 Z M 33.363281 31.46875 C 33.078125 31.46875 32.851562 31.238281 32.851562 30.957031 C 32.851562 30.671875 33.078125 30.4375 33.363281 30.4375 C 33.511719 30.4375 33.648438 30.503906 33.742188 30.601562 L 40.976562 26.421875 L 38.546875 25.027344 C 38.453125 25.125 38.320312 25.183594 38.175781 25.183594 C 38.019531 25.183594 37.890625 25.125 37.796875 25.027344 L 32.609375 28.019531 C 32.617188 28.039062 32.617188 28.0625 32.617188 28.089844 C 32.617188 28.328125 32.453125 28.527344 32.234375 28.585938 L 32.234375 34.664062 C 32.457031 34.71875 32.625 34.917969 32.625 35.164062 C 32.625 35.214844 32.621094 35.261719 32.605469 35.3125 L 37.796875 38.308594 C 37.890625 38.207031 38.019531 38.144531 38.175781 38.144531 C 38.320312 38.144531 38.453125 38.207031 38.546875 38.308594 L 43.738281 35.3125 C 43.722656 35.261719 43.714844 35.214844 43.714844 35.164062 C 43.714844 34.917969 43.882812 34.71875 44.109375 34.664062 L 44.109375 31.71875 L 39.320312 34.488281 C 39.332031 34.535156 39.34375 34.585938 39.34375 34.636719 C 39.34375 34.917969 39.113281 35.152344 38.828125 35.152344 C 38.539062 35.152344 38.308594 34.917969 38.308594 34.636719 C 38.308594 34.351562 38.539062 34.121094 38.828125 34.121094 C 38.976562 34.121094 39.109375 34.183594 39.199219 34.285156 L 44.109375 31.453125 L 44.109375 28.667969 C 44.011719 28.644531 43.921875 28.589844 43.851562 28.519531 L 38.664062 31.519531 C 38.675781 31.566406 38.6875 31.617188 38.6875 31.664062 C 38.6875 31.949219 38.457031 32.183594 38.175781 32.183594 C 37.882812 32.183594 37.65625 31.949219 37.65625 31.664062 C 37.65625 31.382812 37.882812 31.152344 38.175781 31.152344 C 38.320312 31.152344 38.453125 31.210938 38.546875 31.316406 L 43.738281 28.316406 C 43.722656 28.269531 43.714844 28.21875 43.714844 28.171875 C 43.714844 28.117188 43.722656 28.066406 43.738281 28.019531 L 41.210938 26.558594 L 33.859375 30.800781 C 33.871094 30.851562 33.882812 30.902344 33.882812 30.957031 C 33.882812 31.238281 33.648438 31.46875 33.363281 31.46875 Z M 4.585938 14.378906 C 4.4375 14.378906 4.300781 14.3125 4.210938 14.214844 L 1.824219 15.589844 C 1.835938 15.640625 1.84375 15.691406 1.84375 15.746094 C 1.84375 15.792969 1.835938 15.84375 1.824219 15.890625 L 5.6875 18.125 C 5.78125 18.019531 5.914062 17.960938 6.058594 17.960938 C 6.34375 17.960938 6.578125 18.191406 6.578125 18.472656 C 6.578125 18.71875 6.410156 18.921875 6.179688 18.976562 L 6.179688 23.738281 L 9.003906 22.105469 C 8.988281 22.0625 8.980469 22.007812 8.980469 21.957031 C 8.980469 21.675781 9.210938 21.445312 9.496094 21.445312 C 9.777344 21.445312 10.011719 21.675781 10.011719 21.957031 C 10.011719 22.242188 9.777344 22.472656 9.496094 22.472656 C 9.347656 22.472656 9.214844 22.410156 9.117188 22.3125 L 6.179688 24.003906 L 6.179688 28.902344 C 6.410156 28.957031 6.578125 29.160156 6.578125 29.40625 C 6.578125 29.6875 6.34375 29.917969 6.058594 29.917969 C 5.914062 29.917969 5.78125 29.859375 5.6875 29.757812 C 2.824219 31.414062 -0.0429688 33.066406 -2.910156 34.722656 C -2.894531 34.765625 -2.886719 34.816406 -2.886719 34.871094 C -2.886719 35.152344 -3.117188 35.382812 -3.402344 35.382812 C -3.683594 35.382812 -3.921875 35.152344 -3.921875 34.871094 C -3.921875 34.816406 -3.910156 34.765625 -3.898438 34.722656 C -6.765625 33.066406 -9.632812 31.414062 -12.492188 29.757812 C -12.585938 29.859375 -12.722656 29.917969 -12.867188 29.917969 C -13.152344 29.917969 -13.382812 29.6875 -13.382812 29.40625 C -13.382812 29.160156 -13.210938 28.957031 -12.988281 28.902344 L -12.988281 18.976562 C -13.210938 18.921875 -13.382812 18.71875 -13.382812 18.472656 C -13.382812 18.191406 -13.152344 17.960938 -12.867188 17.960938 C -12.722656 17.960938 -12.585938 18.019531 -12.492188 18.125 C -9.625 16.472656 -6.757812 14.816406 -3.898438 13.164062 C -3.910156 13.113281 -3.921875 13.0625 -3.921875 13.007812 C -3.921875 12.726562 -3.683594 12.496094 -3.402344 12.496094 C -3.117188 12.496094 -2.886719 12.726562 -2.886719 13.007812 C -2.886719 13.0625 -2.894531 13.113281 -2.910156 13.15625 L 0.957031 15.390625 C 1.046875 15.292969 1.179688 15.226562 1.332031 15.226562 C 1.480469 15.226562 1.609375 15.292969 1.703125 15.390625 L 4.089844 14.015625 C 4.078125 13.964844 4.066406 13.914062 4.066406 13.859375 C 4.066406 13.578125 4.300781 13.347656 4.585938 13.347656 C 4.871094 13.347656 5.097656 13.578125 5.097656 13.859375 C 5.097656 14.152344 4.871094 14.378906 4.585938 14.378906 Z M 5.945312 18.976562 C 5.714844 18.921875 5.546875 18.71875 5.546875 18.472656 C 5.546875 18.425781 5.550781 18.371094 5.570312 18.328125 L 1.703125 16.09375 C 1.609375 16.199219 1.480469 16.257812 1.332031 16.257812 C 1.179688 16.257812 1.046875 16.199219 0.957031 16.09375 L -2.910156 18.328125 C -2.894531 18.371094 -2.886719 18.425781 -2.886719 18.472656 C -2.886719 18.71875 -3.058594 18.921875 -3.285156 18.976562 L -3.285156 23.738281 L 1.328125 21.074219 L 3.75 22.472656 C 3.847656 22.371094 3.980469 22.308594 4.128906 22.308594 C 4.410156 22.308594 4.644531 22.535156 4.644531 22.824219 C 4.644531 23.109375 4.410156 23.339844 4.128906 23.339844 C 3.84375 23.339844 3.613281 23.109375 3.613281 22.824219 C 3.613281 22.769531 3.621094 22.722656 3.636719 22.671875 L 1.332031 21.339844 L -3.285156 24.003906 L -3.285156 27.609375 C -3.058594 27.664062 -2.886719 27.871094 -2.886719 28.109375 C -2.886719 28.394531 -3.117188 28.628906 -3.402344 28.628906 C -3.683594 28.628906 -3.921875 28.394531 -3.921875 28.109375 C -3.921875 27.871094 -3.75 27.664062 -3.523438 27.609375 L -3.523438 24.140625 L -7.644531 26.523438 C -7.628906 26.570312 -7.621094 26.621094 -7.621094 26.675781 C -7.621094 26.957031 -7.851562 27.1875 -8.136719 27.1875 C -8.417969 27.1875 -8.648438 26.957031 -8.648438 26.675781 C -8.648438 26.386719 -8.417969 26.15625 -8.136719 26.15625 C -7.988281 26.15625 -7.855469 26.222656 -7.757812 26.320312 L -3.523438 23.875 L -3.523438 18.976562 C -3.75 18.921875 -3.921875 18.71875 -3.921875 18.472656 C -3.921875 18.191406 -3.683594 17.960938 -3.402344 17.960938 C -3.253906 17.960938 -3.125 18.019531 -3.03125 18.125 L 0.835938 15.890625 C 0.824219 15.84375 0.8125 15.792969 0.8125 15.746094 C 0.8125 15.691406 0.824219 15.640625 0.835938 15.589844 L -3.03125 13.363281 C -3.125 13.460938 -3.253906 13.527344 -3.402344 13.527344 C -3.550781 13.527344 -3.683594 13.460938 -3.777344 13.363281 L -12.378906 18.328125 C -12.359375 18.371094 -12.355469 18.425781 -12.355469 18.472656 C -12.355469 18.71875 -12.523438 18.921875 -12.75 18.976562 L -12.75 28.902344 C -12.523438 28.957031 -12.355469 29.160156 -12.355469 29.40625 C -12.355469 29.453125 -12.359375 29.507812 -12.378906 29.550781 L -3.777344 34.515625 C -3.683594 34.417969 -3.550781 34.355469 -3.402344 34.355469 C -3.253906 34.355469 -3.125 34.417969 -3.03125 34.515625 L 5.570312 29.550781 C 5.550781 29.507812 5.546875 29.460938 5.546875 29.40625 C 5.546875 29.160156 5.714844 28.957031 5.945312 28.902344 L 5.945312 24.140625 L 1.445312 26.742188 L 1.445312 29.5625 C 1.675781 29.613281 1.84375 29.820312 1.84375 30.058594 C 1.84375 30.34375 1.617188 30.578125 1.332031 30.578125 C 1.042969 30.578125 0.8125 30.34375 0.8125 30.058594 C 0.8125 29.820312 0.984375 29.613281 1.210938 29.5625 L 1.210938 26.605469 L 5.945312 23.875 Z M -3.402344 37.953125 C -3.683594 37.953125 -3.921875 37.726562 -3.921875 37.4375 C -3.921875 37.152344 -3.683594 36.921875 -3.402344 36.921875 C -3.253906 36.921875 -3.125 36.988281 -3.03125 37.085938 L 8.007812 30.714844 C 7.992188 30.664062 7.988281 30.617188 7.988281 30.566406 C 7.988281 30.320312 8.15625 30.113281 8.378906 30.066406 L 8.378906 28.5 C 8.15625 28.445312 7.988281 28.242188 7.988281 27.996094 C 7.988281 27.710938 8.214844 27.484375 8.5 27.484375 C 8.648438 27.484375 8.785156 27.542969 8.878906 27.648438 L 12.121094 25.769531 C 12.109375 25.726562 12.097656 25.675781 12.097656 25.621094 C 12.097656 25.335938 12.332031 25.109375 12.617188 25.109375 C 12.902344 25.109375 13.128906 25.335938 13.128906 25.621094 C 13.128906 25.90625 12.902344 26.132812 12.617188 26.132812 C 12.464844 26.132812 12.332031 26.074219 12.242188 25.976562 L 8.992188 27.847656 C 9.007812 27.890625 9.015625 27.945312 9.015625 27.996094 C 9.015625 28.242188 8.84375 28.445312 8.621094 28.5 L 8.621094 30.066406 C 8.71875 30.085938 8.804688 30.140625 8.878906 30.210938 L 12.53125 28.105469 C 12.519531 28.054688 12.507812 28.007812 12.507812 27.953125 C 12.507812 27.667969 12.742188 27.4375 13.027344 27.4375 C 13.308594 27.4375 13.539062 27.667969 13.539062 27.953125 C 13.539062 28.238281 13.308594 28.472656 13.027344 28.472656 C 12.878906 28.472656 12.742188 28.40625 12.648438 28.308594 L 8.992188 30.414062 C 9.007812 30.464844 9.015625 30.511719 9.015625 30.566406 C 9.015625 30.808594 8.84375 31.015625 8.621094 31.066406 L 8.621094 38.46875 C 8.84375 38.523438 9.015625 38.722656 9.015625 38.96875 C 9.015625 39.253906 8.785156 39.484375 8.5 39.484375 C 8.214844 39.484375 7.988281 39.253906 7.988281 38.96875 C 7.988281 38.722656 8.15625 38.523438 8.378906 38.46875 L 8.378906 31.066406 C 8.28125 31.042969 8.195312 30.988281 8.125 30.917969 L -2.910156 37.289062 C -2.894531 37.335938 -2.886719 37.386719 -2.886719 37.4375 C -2.886719 37.726562 -3.117188 37.953125 -3.402344 37.953125 Z M -5.417969 42.011719 C -5.699219 42.011719 -5.929688 41.78125 -5.929688 41.496094 C -5.929688 41.207031 -5.699219 40.980469 -5.417969 40.980469 C -5.269531 40.980469 -5.132812 41.042969 -5.039062 41.144531 L 5.34375 35.148438 C 5.332031 35.097656 5.324219 35.050781 5.324219 34.996094 C 5.324219 34.710938 5.558594 34.480469 5.839844 34.480469 C 6.125 34.480469 6.355469 34.710938 6.355469 34.996094 C 6.355469 35.285156 6.125 35.515625 5.839844 35.515625 C 5.695312 35.515625 5.558594 35.449219 5.464844 35.351562 L -4.917969 41.34375 C -4.910156 41.394531 -4.898438 41.441406 -4.898438 41.496094 C -4.898438 41.78125 -5.132812 42.011719 -5.417969 42.011719 Z M 10.792969 32.652344 C 10.507812 32.652344 10.28125 32.425781 10.28125 32.132812 C 10.28125 31.851562 10.507812 31.621094 10.792969 31.621094 C 11.078125 31.621094 11.3125 31.851562 11.3125 32.132812 C 11.3125 32.1875 11.300781 32.238281 11.289062 32.289062 L 15.152344 34.515625 C 15.242188 34.417969 15.378906 34.355469 15.527344 34.355469 C 15.675781 34.355469 15.8125 34.417969 15.902344 34.515625 L 24.496094 29.550781 C 24.488281 29.507812 24.476562 29.453125 24.476562 29.40625 C 24.476562 29.121094 24.710938 28.890625 24.996094 28.890625 C 25.277344 28.890625 25.507812 29.121094 25.507812 29.40625 C 25.507812 29.6875 25.277344 29.917969 24.996094 29.917969 C 24.847656 29.917969 24.710938 29.859375 24.617188 29.757812 L 16.019531 34.722656 C 16.035156 34.765625 16.039062 34.816406 16.039062 34.871094 C 16.039062 35.152344 15.8125 35.382812 15.527344 35.382812 C 15.242188 35.382812 15.015625 35.152344 15.015625 34.871094 C 15.015625 34.816406 15.019531 34.765625 15.035156 34.722656 L 11.171875 32.488281 C 11.078125 32.585938 10.941406 32.652344 10.792969 32.652344 Z M 17.796875 25.808594 C 17.570312 25.753906 17.398438 25.550781 17.398438 25.304688 C 17.398438 25.019531 17.628906 24.792969 17.914062 24.792969 C 18.195312 24.792969 18.433594 25.019531 18.433594 25.304688 C 18.433594 25.550781 18.261719 25.753906 18.03125 25.808594 L 18.03125 30.304688 C 18.132812 30.328125 18.222656 30.382812 18.289062 30.453125 L 22.132812 28.238281 C 22.117188 28.1875 22.113281 28.136719 22.113281 28.089844 C 22.113281 27.804688 22.339844 27.570312 22.625 27.570312 C 22.910156 27.570312 23.144531 27.804688 23.144531 28.089844 C 23.144531 28.371094 22.910156 28.601562 22.625 28.601562 C 22.476562 28.601562 22.347656 28.542969 22.253906 28.4375 L 18.410156 30.660156 C 18.421875 30.703125 18.433594 30.753906 18.433594 30.808594 C 18.433594 31.089844 18.195312 31.320312 17.914062 31.320312 C 17.628906 31.320312 17.398438 31.089844 17.398438 30.808594 C 17.398438 30.5625 17.570312 30.359375 17.796875 30.304688 Z M 24.523438 21.992188 C 24.242188 21.992188 24.011719 21.761719 24.011719 21.476562 C 24.011719 21.195312 24.242188 20.964844 24.523438 20.964844 C 24.671875 20.964844 24.804688 21.023438 24.902344 21.128906 L 31.601562 17.257812 C 31.585938 17.214844 31.578125 17.160156 31.578125 17.109375 C 31.578125 16.824219 31.808594 16.597656 32.09375 16.597656 C 32.375 16.597656 32.605469 16.824219 32.605469 17.109375 C 32.605469 17.394531 32.375 17.621094 32.09375 17.621094 C 31.945312 17.621094 31.808594 17.5625 31.714844 17.457031 L 25.015625 21.328125 C 25.03125 21.375 25.039062 21.429688 25.039062 21.476562 C 25.039062 21.761719 24.808594 21.992188 24.523438 21.992188 Z M 28.574219 22.382812 C 28.292969 22.382812 28.0625 22.152344 28.0625 21.871094 C 28.0625 21.585938 28.292969 21.355469 28.574219 21.355469 C 28.722656 21.355469 28.859375 21.417969 28.953125 21.519531 L 38.65625 15.914062 C 38.644531 15.871094 38.632812 15.820312 38.632812 15.765625 C 38.632812 15.484375 38.863281 15.253906 39.152344 15.253906 C 39.433594 15.253906 39.664062 15.484375 39.664062 15.765625 C 39.664062 16.050781 39.433594 16.28125 39.152344 16.28125 C 39 16.28125 38.867188 16.21875 38.773438 16.121094 L 29.066406 21.722656 C 29.082031 21.765625 29.089844 21.820312 29.089844 21.871094 C 29.089844 22.152344 28.859375 22.382812 28.574219 22.382812 Z M 36.824219 20.40625 C 36.679688 20.40625 36.542969 20.339844 36.449219 20.242188 L 27.871094 25.195312 C 27.886719 25.238281 27.894531 25.289062 27.894531 25.34375 C 27.894531 25.589844 27.722656 25.789062 27.5 25.84375 L 27.5 33.285156 L 29.609375 32.070312 L 29.609375 27.171875 C 29.378906 27.121094 29.210938 26.914062 29.210938 26.675781 C 29.210938 26.386719 29.4375 26.15625 29.726562 26.15625 C 29.875 26.15625 30.007812 26.222656 30.097656 26.320312 L 33.859375 24.148438 C 33.84375 24.101562 33.839844 24.054688 33.839844 24 C 33.839844 23.714844 34.066406 23.488281 34.351562 23.488281 C 34.636719 23.488281 34.871094 23.714844 34.871094 24 C 34.871094 24.285156 34.636719 24.511719 34.351562 24.511719 C 34.203125 24.511719 34.074219 24.453125 33.980469 24.355469 L 30.21875 26.523438 C 30.230469 26.570312 30.242188 26.621094 30.242188 26.675781 C 30.242188 26.914062 30.070312 27.121094 29.84375 27.171875 L 29.84375 32.207031 L 27.5 33.558594 L 27.5 35.78125 C 27.722656 35.835938 27.894531 36.039062 27.894531 36.285156 C 27.894531 36.566406 27.664062 36.796875 27.378906 36.796875 C 27.097656 36.796875 26.867188 36.566406 26.867188 36.285156 C 26.867188 36.039062 27.035156 35.835938 27.261719 35.78125 L 27.261719 33.695312 L 25.046875 34.972656 L 14.277344 41.191406 C 14.292969 41.234375 14.296875 41.289062 14.296875 41.339844 C 14.296875 41.625 14.070312 41.851562 13.785156 41.851562 C 13.5 41.851562 13.273438 41.625 13.273438 41.339844 C 13.273438 41.054688 13.5 40.828125 13.785156 40.828125 C 13.933594 40.828125 14.0625 40.886719 14.164062 40.988281 L 24.933594 34.765625 L 24.996094 34.871094 L 24.933594 34.765625 L 27.261719 33.421875 L 27.261719 25.84375 C 27.035156 25.789062 26.867188 25.589844 26.867188 25.34375 C 26.867188 25.058594 27.097656 24.828125 27.378906 24.828125 C 27.527344 24.828125 27.664062 24.890625 27.757812 24.988281 L 36.328125 20.042969 C 36.316406 19.992188 36.308594 19.941406 36.308594 19.886719 C 36.308594 19.605469 36.542969 19.375 36.824219 19.375 C 37.109375 19.375 37.339844 19.605469 37.339844 19.886719 C 37.339844 20.171875 37.109375 20.40625 36.824219 20.40625 Z M 25.046875 32.652344 C 24.902344 32.652344 24.769531 32.59375 24.671875 32.496094 L 16.035156 37.480469 C 16.050781 37.527344 16.058594 37.578125 16.058594 37.628906 C 16.058594 37.910156 15.828125 38.144531 15.542969 38.144531 C 15.257812 38.144531 15.03125 37.910156 15.03125 37.628906 C 15.03125 37.34375 15.257812 37.113281 15.542969 37.113281 C 15.691406 37.113281 15.828125 37.179688 15.921875 37.277344 L 24.558594 32.289062 C 24.542969 32.242188 24.535156 32.195312 24.535156 32.140625 C 24.535156 31.855469 24.765625 31.625 25.046875 31.625 C 25.332031 31.625 25.566406 31.855469 25.566406 32.140625 C 25.566406 32.425781 25.332031 32.652344 25.046875 32.652344 Z M 25.046875 32.652344 " fill-opacity="1" fill-rule="nonzero"/></g><g clip-path="url(#9dc0719e86)"><path fill="#ef49f2" d="M 15.59375 17.296875 L 15.59375 12.539062 L 13.839844 13.550781 C 13.855469 13.597656 13.863281 13.648438 13.863281 13.703125 C 13.863281 13.988281 13.632812 14.214844 13.347656 14.214844 C 13.066406 14.214844 12.832031 13.988281 12.832031 13.703125 C 12.832031 13.417969 13.066406 13.183594 13.347656 13.183594 C 13.496094 13.183594 13.628906 13.25 13.71875 13.347656 L 15.59375 12.265625 L 15.59375 7.371094 C 15.496094 7.347656 15.40625 7.292969 15.335938 7.222656 L 6.742188 12.183594 C 6.753906 12.234375 6.765625 12.285156 6.765625 12.332031 C 6.765625 12.578125 6.59375 12.785156 6.367188 12.835938 L 6.367188 17.296875 C 6.59375 17.351562 6.765625 17.558594 6.765625 17.796875 C 6.765625 18.082031 6.53125 18.316406 6.246094 18.316406 C 5.960938 18.316406 5.734375 18.082031 5.734375 17.796875 C 5.734375 17.558594 5.902344 17.351562 6.132812 17.296875 L 6.132812 12.835938 C 5.902344 12.785156 5.734375 12.578125 5.734375 12.332031 C 5.734375 12.046875 5.960938 11.820312 6.246094 11.820312 C 6.394531 11.820312 6.53125 11.882812 6.621094 11.984375 L 15.222656 7.019531 C 15.203125 6.972656 15.199219 6.921875 15.199219 6.867188 C 15.199219 6.816406 15.203125 6.769531 15.222656 6.71875 L 11.355469 4.492188 C 11.261719 4.589844 11.125 4.652344 10.980469 4.652344 C 10.695312 4.652344 10.464844 4.421875 10.464844 4.136719 C 10.464844 3.851562 10.695312 3.625 10.980469 3.625 C 11.125 3.625 11.261719 3.683594 11.355469 3.78125 L 15.222656 1.554688 C 15.203125 1.503906 15.199219 1.457031 15.199219 1.40625 C 15.199219 1.117188 15.429688 0.890625 15.710938 0.890625 C 15.996094 0.890625 16.226562 1.117188 16.226562 1.40625 C 16.226562 1.691406 15.996094 1.921875 15.710938 1.921875 C 15.566406 1.921875 15.429688 1.855469 15.335938 1.757812 L 11.476562 3.988281 C 11.488281 4.035156 11.496094 4.089844 11.496094 4.136719 C 11.496094 4.191406 11.488281 4.242188 11.476562 4.285156 L 15.335938 6.519531 C 15.429688 6.417969 15.566406 6.355469 15.710938 6.355469 C 15.859375 6.355469 15.996094 6.417969 16.089844 6.519531 L 18.585938 5.078125 C 18.566406 5.027344 18.5625 4.976562 18.5625 4.929688 C 18.5625 4.644531 18.792969 4.414062 19.074219 4.414062 C 19.359375 4.414062 19.589844 4.644531 19.589844 4.929688 C 19.589844 5.214844 19.359375 5.441406 19.074219 5.441406 C 18.929688 5.441406 18.792969 5.382812 18.699219 5.277344 L 16.203125 6.71875 C 16.21875 6.769531 16.226562 6.816406 16.226562 6.867188 C 16.226562 7.113281 16.058594 7.320312 15.832031 7.371094 L 15.832031 12.128906 L 19.953125 9.75 C 19.9375 9.707031 19.933594 9.652344 19.933594 9.601562 C 19.933594 9.320312 20.164062 9.089844 20.445312 9.089844 C 20.730469 9.089844 20.960938 9.320312 20.960938 9.601562 C 20.960938 9.886719 20.730469 10.117188 20.445312 10.117188 C 20.300781 10.117188 20.164062 10.054688 20.070312 9.953125 L 15.832031 12.402344 L 15.832031 17.296875 C 16.058594 17.351562 16.226562 17.558594 16.226562 17.796875 C 16.226562 18.082031 15.996094 18.316406 15.710938 18.316406 C 15.429688 18.316406 15.199219 18.082031 15.199219 17.796875 C 15.199219 17.558594 15.367188 17.351562 15.59375 17.296875 Z M 25.292969 11.738281 C 25.523438 11.785156 25.691406 11.992188 25.691406 12.238281 C 25.691406 12.523438 25.464844 12.753906 25.179688 12.753906 C 24.894531 12.753906 24.660156 12.523438 24.660156 12.238281 C 24.660156 11.992188 24.832031 11.785156 25.058594 11.738281 L 25.058594 7.277344 C 25.039062 7.28125 25.023438 7.28125 25 7.28125 C 24.714844 7.28125 24.488281 7.054688 24.488281 6.769531 C 24.488281 6.714844 24.492188 6.664062 24.507812 6.617188 L 20.328125 4.203125 L 20.328125 -0.824219 C 20.101562 -0.878906 19.933594 -1.082031 19.933594 -1.328125 C 19.933594 -1.613281 20.164062 -1.839844 20.445312 -1.839844 C 20.730469 -1.839844 20.960938 -1.613281 20.960938 -1.328125 C 20.960938 -1.082031 20.789062 -0.878906 20.5625 -0.824219 L 20.5625 4.070312 L 24.621094 6.414062 C 24.714844 6.316406 24.851562 6.25 25 6.25 C 25.285156 6.25 25.511719 6.484375 25.511719 6.769531 C 25.511719 6.945312 25.429688 7.097656 25.292969 7.1875 Z M 34.875 -18.371094 C 35.164062 -18.371094 35.394531 -18.144531 35.394531 -17.859375 C 35.394531 -17.574219 35.164062 -17.339844 34.875 -17.339844 C 34.730469 -17.339844 34.597656 -17.40625 34.503906 -17.503906 L 23.308594 -11.039062 C 23.316406 -10.992188 23.328125 -10.941406 23.328125 -10.894531 C 23.328125 -10.605469 23.09375 -10.375 22.808594 -10.375 C 22.527344 -10.375 22.296875 -10.605469 22.296875 -10.894531 C 22.296875 -11.175781 22.527344 -11.40625 22.808594 -11.40625 C 22.957031 -11.40625 23.09375 -11.339844 23.1875 -11.242188 L 34.386719 -17.707031 C 34.367188 -17.757812 34.363281 -17.804688 34.363281 -17.859375 C 34.363281 -18.144531 34.59375 -18.371094 34.875 -18.371094 Z M -5.117188 3.945312 C -4.890625 3.996094 -4.722656 4.203125 -4.722656 4.441406 C -4.722656 4.734375 -4.953125 4.960938 -5.234375 4.960938 C -5.519531 4.960938 -5.75 4.734375 -5.75 4.441406 C -5.75 4.203125 -5.578125 3.996094 -5.355469 3.945312 L -5.355469 1.71875 L -7.878906 0.261719 C -7.976562 0.359375 -8.109375 0.425781 -8.253906 0.425781 C -8.402344 0.425781 -8.539062 0.359375 -8.632812 0.261719 L -13.769531 3.230469 C -13.757812 3.273438 -13.746094 3.324219 -13.746094 3.378906 C -13.746094 3.664062 -13.980469 3.890625 -14.265625 3.890625 C -14.550781 3.890625 -14.78125 3.664062 -14.78125 3.378906 C -14.78125 3.09375 -14.550781 2.867188 -14.265625 2.867188 C -14.117188 2.867188 -13.980469 2.925781 -13.890625 3.023438 L -8.746094 0.0585938 C -8.761719 0.0117188 -8.769531 -0.0390625 -8.769531 -0.09375 C -8.769531 -0.335938 -8.597656 -0.542969 -8.375 -0.589844 L -8.375 -3.238281 L -10.160156 -2.207031 C -10.144531 -2.15625 -10.140625 -2.109375 -10.140625 -2.054688 C -10.140625 -1.769531 -10.367188 -1.539062 -10.652344 -1.539062 C -10.9375 -1.539062 -11.171875 -1.769531 -11.171875 -2.054688 C -11.171875 -2.335938 -10.9375 -2.574219 -10.652344 -2.574219 C -10.503906 -2.574219 -10.375 -2.507812 -10.273438 -2.410156 L -8.375 -3.507812 L -8.375 -6.585938 C -8.597656 -6.640625 -8.769531 -6.84375 -8.769531 -7.085938 C -8.769531 -7.371094 -8.539062 -7.601562 -8.253906 -7.601562 C -8.109375 -7.601562 -7.976562 -7.539062 -7.878906 -7.4375 C -6.152344 -8.4375 -4.421875 -9.433594 -2.691406 -10.433594 C -2.707031 -10.484375 -2.714844 -10.53125 -2.714844 -10.582031 C -2.714844 -10.867188 -2.484375 -11.101562 -2.199219 -11.101562 C -1.917969 -11.101562 -1.683594 -10.867188 -1.683594 -10.582031 C -1.683594 -10.53125 -1.691406 -10.484375 -1.703125 -10.433594 C 0.0273438 -9.433594 1.753906 -8.4375 3.484375 -7.4375 C 3.574219 -7.539062 3.710938 -7.601562 3.859375 -7.601562 C 4.144531 -7.601562 4.375 -7.371094 4.375 -7.085938 C 4.375 -6.84375 4.203125 -6.640625 3.972656 -6.585938 L 3.972656 -0.515625 C 4.210938 -0.464844 4.382812 -0.257812 4.382812 -0.0117188 C 4.382812 0.273438 4.15625 0.507812 3.871094 0.507812 C 3.695312 0.507812 3.539062 0.417969 3.445312 0.28125 C 1.730469 1.269531 0.0117188 2.265625 -1.703125 3.257812 C -1.691406 3.300781 -1.683594 3.355469 -1.683594 3.40625 C -1.683594 3.691406 -1.917969 3.917969 -2.199219 3.917969 C -2.484375 3.917969 -2.714844 3.691406 -2.714844 3.40625 C -2.714844 3.355469 -2.707031 3.300781 -2.691406 3.257812 L -5.117188 1.855469 Z M 2.609375 -3.390625 C 2.894531 -3.390625 3.121094 -3.164062 3.121094 -2.878906 C 3.121094 -2.59375 2.894531 -2.359375 2.609375 -2.359375 C 2.457031 -2.359375 2.324219 -2.425781 2.234375 -2.523438 L -5 1.652344 L -2.570312 3.050781 C -2.480469 2.953125 -2.347656 2.890625 -2.199219 2.890625 C -2.046875 2.890625 -1.917969 2.953125 -1.824219 3.050781 L 3.363281 0.0585938 C 3.359375 0.0390625 3.359375 0.015625 3.359375 -0.0117188 C 3.359375 -0.253906 3.519531 -0.449219 3.738281 -0.507812 L 3.738281 -6.585938 C 3.515625 -6.640625 3.347656 -6.84375 3.347656 -7.085938 C 3.347656 -7.136719 3.351562 -7.1875 3.367188 -7.234375 L -1.824219 -10.234375 C -1.917969 -10.128906 -2.046875 -10.070312 -2.199219 -10.070312 C -2.347656 -10.070312 -2.480469 -10.128906 -2.570312 -10.234375 L -7.765625 -7.234375 C -7.746094 -7.1875 -7.742188 -7.136719 -7.742188 -7.085938 C -7.742188 -6.84375 -7.910156 -6.640625 -8.140625 -6.585938 L -8.140625 -3.644531 L -3.347656 -6.410156 C -3.363281 -6.460938 -3.367188 -6.507812 -3.367188 -6.558594 C -3.367188 -6.84375 -3.140625 -7.078125 -2.855469 -7.078125 C -2.570312 -7.078125 -2.335938 -6.84375 -2.335938 -6.558594 C -2.335938 -6.273438 -2.570312 -6.042969 -2.855469 -6.042969 C -3.003906 -6.042969 -3.132812 -6.105469 -3.226562 -6.207031 L -8.140625 -3.375 L -8.140625 -0.589844 C -8.035156 -0.570312 -7.949219 -0.515625 -7.878906 -0.441406 L -2.691406 -3.441406 C -2.707031 -3.484375 -2.714844 -3.539062 -2.714844 -3.589844 C -2.714844 -3.871094 -2.484375 -4.101562 -2.199219 -4.101562 C -1.917969 -4.101562 -1.683594 -3.871094 -1.683594 -3.589844 C -1.683594 -3.304688 -1.917969 -3.074219 -2.199219 -3.074219 C -2.347656 -3.074219 -2.480469 -3.136719 -2.570312 -3.238281 L -7.765625 -0.242188 C -7.746094 -0.191406 -7.742188 -0.144531 -7.742188 -0.09375 C -7.742188 -0.0390625 -7.746094 0.0117188 -7.765625 0.0585938 L -5.234375 1.515625 L 2.113281 -2.726562 C 2.101562 -2.773438 2.089844 -2.824219 2.089844 -2.878906 C 2.089844 -3.164062 2.320312 -3.390625 2.609375 -3.390625 Z M 31.386719 13.695312 C 31.535156 13.695312 31.671875 13.761719 31.765625 13.859375 L 34.148438 12.484375 C 34.132812 12.4375 34.128906 12.386719 34.128906 12.332031 C 34.128906 12.28125 34.132812 12.234375 34.148438 12.183594 L 30.285156 9.953125 C 30.191406 10.054688 30.0625 10.117188 29.914062 10.117188 C 29.625 10.117188 29.394531 9.886719 29.394531 9.601562 C 29.394531 9.355469 29.5625 9.15625 29.792969 9.101562 L 29.792969 4.339844 L 26.96875 5.972656 C 26.988281 6.015625 26.992188 6.070312 26.992188 6.121094 C 26.992188 6.402344 26.761719 6.632812 26.480469 6.632812 C 26.195312 6.632812 25.960938 6.402344 25.960938 6.121094 C 25.960938 5.835938 26.195312 5.605469 26.480469 5.605469 C 26.625 5.605469 26.757812 5.667969 26.851562 5.769531 L 29.792969 4.070312 L 29.792969 -0.824219 C 29.5625 -0.878906 29.394531 -1.082031 29.394531 -1.328125 C 29.394531 -1.613281 29.625 -1.839844 29.914062 -1.839844 C 30.0625 -1.839844 30.191406 -1.78125 30.285156 -1.675781 C 33.152344 -3.335938 36.015625 -4.992188 38.882812 -6.644531 C 38.867188 -6.6875 38.863281 -6.738281 38.863281 -6.792969 C 38.863281 -7.078125 39.089844 -7.304688 39.375 -7.304688 C 39.660156 -7.304688 39.894531 -7.078125 39.894531 -6.792969 C 39.894531 -6.738281 39.882812 -6.6875 39.871094 -6.644531 C 42.738281 -4.992188 45.597656 -3.335938 48.464844 -1.683594 C 48.558594 -1.78125 48.695312 -1.839844 48.84375 -1.839844 C 49.125 -1.839844 49.355469 -1.613281 49.355469 -1.328125 C 49.355469 -1.082031 49.1875 -0.878906 48.957031 -0.824219 L 48.957031 9.101562 C 49.1875 9.15625 49.355469 9.355469 49.355469 9.601562 C 49.355469 9.886719 49.125 10.117188 48.84375 10.117188 C 48.695312 10.117188 48.558594 10.054688 48.464844 9.953125 C 45.597656 11.605469 42.734375 13.261719 39.871094 14.914062 C 39.882812 14.964844 39.894531 15.011719 39.894531 15.066406 C 39.894531 15.351562 39.660156 15.582031 39.375 15.582031 C 39.089844 15.582031 38.863281 15.351562 38.863281 15.066406 C 38.863281 15.011719 38.867188 14.964844 38.882812 14.921875 L 35.019531 12.6875 C 34.925781 12.785156 34.789062 12.851562 34.640625 12.851562 C 34.492188 12.851562 34.363281 12.785156 34.269531 12.6875 L 31.882812 14.0625 C 31.894531 14.113281 31.90625 14.160156 31.90625 14.214844 C 31.90625 14.5 31.671875 14.730469 31.386719 14.730469 C 31.105469 14.730469 30.875 14.5 30.875 14.214844 C 30.875 13.925781 31.105469 13.695312 31.386719 13.695312 Z M 30.027344 9.101562 C 30.257812 9.15625 30.425781 9.355469 30.425781 9.601562 C 30.425781 9.652344 30.414062 9.707031 30.40625 9.75 L 34.269531 11.984375 C 34.363281 11.882812 34.492188 11.820312 34.640625 11.820312 C 34.789062 11.820312 34.925781 11.882812 35.019531 11.984375 L 38.882812 9.75 C 38.867188 9.707031 38.863281 9.652344 38.863281 9.601562 C 38.863281 9.355469 39.03125 9.15625 39.261719 9.101562 L 39.261719 4.339844 L 34.640625 7.003906 L 32.222656 5.605469 C 32.125 5.703125 31.992188 5.769531 31.847656 5.769531 C 31.5625 5.769531 31.328125 5.539062 31.328125 5.25 C 31.328125 4.96875 31.5625 4.738281 31.847656 4.738281 C 32.128906 4.738281 32.359375 4.96875 32.359375 5.25 C 32.359375 5.304688 32.355469 5.355469 32.335938 5.402344 L 34.640625 6.734375 L 39.261719 4.070312 L 39.261719 0.46875 C 39.03125 0.414062 38.863281 0.210938 38.863281 -0.0351562 C 38.863281 -0.316406 39.089844 -0.550781 39.375 -0.550781 C 39.660156 -0.550781 39.894531 -0.316406 39.894531 -0.0351562 C 39.894531 0.210938 39.71875 0.414062 39.496094 0.46875 L 39.496094 3.933594 L 43.617188 1.554688 C 43.601562 1.503906 43.59375 1.457031 43.59375 1.40625 C 43.59375 1.117188 43.824219 0.890625 44.109375 0.890625 C 44.390625 0.890625 44.621094 1.117188 44.621094 1.40625 C 44.621094 1.691406 44.390625 1.921875 44.109375 1.921875 C 43.960938 1.921875 43.824219 1.855469 43.730469 1.757812 L 39.496094 4.203125 L 39.496094 9.101562 C 39.71875 9.15625 39.894531 9.355469 39.894531 9.601562 C 39.894531 9.886719 39.660156 10.117188 39.375 10.117188 C 39.226562 10.117188 39.097656 10.054688 39 9.953125 L 35.136719 12.183594 C 35.148438 12.234375 35.160156 12.285156 35.160156 12.332031 C 35.160156 12.386719 35.148438 12.4375 35.136719 12.484375 L 39 14.710938 C 39.097656 14.613281 39.226562 14.554688 39.375 14.554688 C 39.523438 14.554688 39.660156 14.613281 39.75 14.710938 L 48.351562 9.75 C 48.335938 9.707031 48.328125 9.652344 48.328125 9.601562 C 48.328125 9.355469 48.5 9.15625 48.722656 9.101562 L 48.722656 -0.824219 C 48.5 -0.878906 48.328125 -1.082031 48.328125 -1.328125 C 48.328125 -1.375 48.335938 -1.429688 48.351562 -1.476562 L 39.75 -6.4375 C 39.660156 -6.339844 39.523438 -6.28125 39.375 -6.28125 C 39.226562 -6.28125 39.097656 -6.339844 39 -6.4375 L 30.40625 -1.476562 C 30.414062 -1.429688 30.425781 -1.375 30.425781 -1.328125 C 30.425781 -1.082031 30.257812 -0.878906 30.027344 -0.824219 L 30.027344 3.933594 L 34.527344 1.335938 L 34.527344 -1.480469 C 34.296875 -1.535156 34.128906 -1.742188 34.128906 -1.984375 C 34.128906 -2.265625 34.359375 -2.5 34.640625 -2.5 C 34.925781 -2.5 35.160156 -2.265625 35.160156 -1.984375 C 35.160156 -1.742188 34.992188 -1.535156 34.761719 -1.480469 L 34.761719 1.472656 L 30.027344 4.203125 Z M 39.375 -9.878906 C 39.660156 -9.878906 39.894531 -9.644531 39.894531 -9.359375 C 39.894531 -9.074219 39.660156 -8.847656 39.375 -8.847656 C 39.226562 -8.847656 39.097656 -8.90625 39 -9.007812 L 27.964844 -2.636719 C 27.980469 -2.589844 27.984375 -2.539062 27.984375 -2.492188 C 27.984375 -2.246094 27.816406 -2.039062 27.585938 -1.988281 L 27.585938 -0.421875 C 27.816406 -0.367188 27.984375 -0.164062 27.984375 0.0820312 C 27.984375 0.363281 27.757812 0.59375 27.472656 0.59375 C 27.324219 0.59375 27.1875 0.535156 27.097656 0.429688 L 23.851562 2.308594 C 23.863281 2.351562 23.875 2.40625 23.875 2.457031 C 23.875 2.738281 23.640625 2.96875 23.355469 2.96875 C 23.074219 2.96875 22.84375 2.738281 22.84375 2.457031 C 22.84375 2.171875 23.074219 1.941406 23.355469 1.941406 C 23.503906 1.941406 23.640625 2.003906 23.734375 2.105469 L 26.980469 0.226562 C 26.964844 0.183594 26.960938 0.128906 26.960938 0.0820312 C 26.960938 -0.164062 27.128906 -0.367188 27.351562 -0.421875 L 27.351562 -1.988281 C 27.253906 -2.011719 27.167969 -2.066406 27.097656 -2.136719 L 23.445312 -0.0234375 C 23.453125 0.0195312 23.464844 0.0703125 23.464844 0.125 C 23.464844 0.410156 23.230469 0.636719 22.945312 0.636719 C 22.664062 0.636719 22.433594 0.410156 22.433594 0.125 C 22.433594 -0.160156 22.664062 -0.390625 22.945312 -0.390625 C 23.09375 -0.390625 23.230469 -0.328125 23.324219 -0.230469 L 26.980469 -2.335938 C 26.964844 -2.386719 26.960938 -2.4375 26.960938 -2.492188 C 26.960938 -2.730469 27.128906 -2.9375 27.351562 -2.988281 L 27.351562 -10.390625 C 27.128906 -10.441406 26.960938 -10.648438 26.960938 -10.894531 C 26.960938 -11.175781 27.1875 -11.40625 27.472656 -11.40625 C 27.757812 -11.40625 27.984375 -11.175781 27.984375 -10.894531 C 27.984375 -10.648438 27.816406 -10.441406 27.585938 -10.390625 L 27.585938 -2.988281 C 27.691406 -2.964844 27.777344 -2.910156 27.851562 -2.839844 L 38.882812 -9.210938 C 38.867188 -9.261719 38.863281 -9.308594 38.863281 -9.359375 C 38.863281 -9.644531 39.089844 -9.878906 39.375 -9.878906 Z M 41.390625 -13.933594 C 41.671875 -13.933594 41.902344 -13.703125 41.902344 -13.414062 C 41.902344 -13.132812 41.671875 -12.902344 41.390625 -12.902344 C 41.238281 -12.902344 41.105469 -12.96875 41.011719 -13.066406 L 30.625 -7.070312 C 30.640625 -7.023438 30.652344 -6.972656 30.652344 -6.917969 C 30.652344 -6.632812 30.414062 -6.40625 30.132812 -6.40625 C 29.847656 -6.40625 29.617188 -6.632812 29.617188 -6.917969 C 29.617188 -7.203125 29.847656 -7.4375 30.132812 -7.4375 C 30.277344 -7.4375 30.414062 -7.371094 30.507812 -7.273438 L 40.894531 -13.269531 C 40.882812 -13.316406 40.871094 -13.367188 40.871094 -13.414062 C 40.871094 -13.703125 41.101562 -13.933594 41.390625 -13.933594 Z M 25.179688 -4.578125 C 25.464844 -4.578125 25.691406 -4.347656 25.691406 -4.058594 C 25.691406 -3.773438 25.464844 -3.542969 25.179688 -3.542969 C 24.894531 -3.542969 24.660156 -3.773438 24.660156 -4.058594 C 24.660156 -4.113281 24.671875 -4.160156 24.683594 -4.210938 L 20.824219 -6.4375 C 20.726562 -6.339844 20.59375 -6.28125 20.445312 -6.28125 C 20.300781 -6.28125 20.164062 -6.339844 20.070312 -6.4375 L 11.476562 -1.476562 C 11.488281 -1.429688 11.496094 -1.375 11.496094 -1.328125 C 11.496094 -1.042969 11.261719 -0.816406 10.980469 -0.816406 C 10.695312 -0.816406 10.464844 -1.042969 10.464844 -1.328125 C 10.464844 -1.613281 10.695312 -1.839844 10.980469 -1.839844 C 11.125 -1.839844 11.261719 -1.78125 11.355469 -1.675781 L 19.953125 -6.644531 C 19.9375 -6.6875 19.933594 -6.738281 19.933594 -6.792969 C 19.933594 -7.078125 20.164062 -7.304688 20.445312 -7.304688 C 20.730469 -7.304688 20.960938 -7.078125 20.960938 -6.792969 C 20.960938 -6.738281 20.953125 -6.6875 20.9375 -6.644531 L 24.804688 -4.414062 C 24.894531 -4.511719 25.03125 -4.578125 25.179688 -4.578125 Z M 18.175781 2.269531 C 18.40625 2.324219 18.574219 2.527344 18.574219 2.773438 C 18.574219 3.054688 18.34375 3.285156 18.058594 3.285156 C 17.777344 3.285156 17.542969 3.054688 17.542969 2.773438 C 17.542969 2.527344 17.710938 2.324219 17.941406 2.269531 L 17.941406 -2.230469 C 17.84375 -2.25 17.75 -2.304688 17.683594 -2.375 L 13.839844 -0.160156 C 13.855469 -0.109375 13.863281 -0.0625 13.863281 -0.0117188 C 13.863281 0.273438 13.632812 0.507812 13.347656 0.507812 C 13.066406 0.507812 12.832031 0.273438 12.832031 -0.0117188 C 12.832031 -0.296875 13.066406 -0.523438 13.347656 -0.523438 C 13.496094 -0.523438 13.628906 -0.460938 13.71875 -0.363281 L 17.5625 -2.582031 C 17.550781 -2.628906 17.542969 -2.675781 17.542969 -2.730469 C 17.542969 -3.015625 17.777344 -3.242188 18.058594 -3.242188 C 18.34375 -3.242188 18.574219 -3.015625 18.574219 -2.730469 C 18.574219 -2.484375 18.40625 -2.28125 18.175781 -2.230469 Z M 11.449219 6.085938 C 11.734375 6.085938 11.960938 6.316406 11.960938 6.601562 C 11.960938 6.882812 11.734375 7.113281 11.449219 7.113281 C 11.300781 7.113281 11.164062 7.054688 11.070312 6.949219 L 4.371094 10.820312 C 4.390625 10.871094 4.394531 10.917969 4.394531 10.96875 C 4.394531 11.25 4.164062 11.484375 3.882812 11.484375 C 3.597656 11.484375 3.367188 11.25 3.367188 10.96875 C 3.367188 10.683594 3.597656 10.453125 3.882812 10.453125 C 4.027344 10.453125 4.164062 10.515625 4.257812 10.617188 L 10.957031 6.746094 C 10.941406 6.703125 10.9375 6.648438 10.9375 6.601562 C 10.9375 6.316406 11.164062 6.085938 11.449219 6.085938 Z M 7.398438 5.695312 C 7.679688 5.695312 7.910156 5.921875 7.910156 6.207031 C 7.910156 6.492188 7.679688 6.71875 7.398438 6.71875 C 7.25 6.71875 7.113281 6.660156 7.019531 6.5625 L -2.679688 12.164062 C -2.671875 12.207031 -2.660156 12.257812 -2.660156 12.308594 C -2.660156 12.59375 -2.894531 12.824219 -3.175781 12.824219 C -3.460938 12.824219 -3.691406 12.59375 -3.691406 12.308594 C -3.691406 12.027344 -3.460938 11.796875 -3.175781 11.796875 C -3.023438 11.796875 -2.894531 11.855469 -2.800781 11.957031 L 6.902344 6.355469 C 6.890625 6.308594 6.878906 6.253906 6.878906 6.207031 C 6.878906 5.921875 7.113281 5.695312 7.398438 5.695312 Z M -0.851562 7.667969 C -0.703125 7.667969 -0.566406 7.734375 -0.476562 7.832031 L 8.101562 2.882812 C 8.085938 2.839844 8.082031 2.789062 8.082031 2.734375 C 8.082031 2.488281 8.25 2.285156 8.472656 2.230469 L 8.472656 -5.210938 L 6.367188 -3.992188 L 6.367188 0.90625 C 6.59375 0.953125 6.765625 1.160156 6.765625 1.40625 C 6.765625 1.691406 6.53125 1.921875 6.246094 1.921875 C 6.097656 1.921875 5.96875 1.855469 5.875 1.757812 L 2.113281 3.929688 C 2.125 3.972656 2.132812 4.027344 2.132812 4.078125 C 2.132812 4.359375 1.90625 4.589844 1.621094 4.589844 C 1.332031 4.589844 1.101562 4.359375 1.101562 4.078125 C 1.101562 3.792969 1.332031 3.5625 1.621094 3.5625 C 1.769531 3.5625 1.898438 3.625 1.992188 3.722656 L 5.753906 1.554688 C 5.738281 1.503906 5.734375 1.457031 5.734375 1.40625 C 5.734375 1.160156 5.902344 0.953125 6.132812 0.90625 L 6.132812 -4.128906 L 8.472656 -5.484375 L 8.472656 -7.703125 C 8.25 -7.757812 8.082031 -7.960938 8.082031 -8.207031 C 8.082031 -8.492188 8.308594 -8.71875 8.59375 -8.71875 C 8.878906 -8.71875 9.105469 -8.492188 9.105469 -8.207031 C 9.105469 -7.960938 8.9375 -7.757812 8.707031 -7.703125 L 8.707031 -5.617188 L 10.917969 -6.890625 L 21.695312 -13.113281 C 21.679688 -13.160156 21.675781 -13.214844 21.675781 -13.261719 C 21.675781 -13.546875 21.902344 -13.777344 22.1875 -13.777344 C 22.472656 -13.777344 22.699219 -13.546875 22.699219 -13.261719 C 22.699219 -12.980469 22.472656 -12.75 22.1875 -12.75 C 22.039062 -12.75 21.902344 -12.808594 21.8125 -12.914062 L 11.039062 -6.6875 L 10.980469 -6.792969 L 11.039062 -6.6875 L 8.707031 -5.347656 L 8.707031 2.230469 C 8.9375 2.285156 9.105469 2.488281 9.105469 2.734375 C 9.105469 3.019531 8.878906 3.246094 8.59375 3.246094 C 8.445312 3.246094 8.308594 3.1875 8.214844 3.089844 L -0.359375 8.035156 C -0.34375 8.085938 -0.339844 8.132812 -0.339844 8.1875 C -0.339844 8.472656 -0.566406 8.703125 -0.851562 8.703125 C -1.136719 8.703125 -1.363281 8.472656 -1.363281 8.1875 C -1.363281 7.90625 -1.136719 7.667969 -0.851562 7.667969 Z M 10.925781 -4.578125 C 11.070312 -4.578125 11.203125 -4.515625 11.296875 -4.417969 L 19.9375 -9.402344 C 19.921875 -9.453125 19.917969 -9.5 19.917969 -9.550781 C 19.917969 -9.832031 20.144531 -10.070312 20.429688 -10.070312 C 20.714844 -10.070312 20.941406 -9.832031 20.941406 -9.550781 C 20.941406 -9.265625 20.714844 -9.035156 20.429688 -9.035156 C 20.28125 -9.035156 20.144531 -9.097656 20.054688 -9.199219 L 11.417969 -4.210938 C 11.433594 -4.167969 11.4375 -4.113281 11.4375 -4.0625 C 11.4375 -3.777344 11.207031 -3.550781 10.925781 -3.550781 C 10.640625 -3.550781 10.40625 -3.777344 10.40625 -4.0625 C 10.40625 -4.347656 10.640625 -4.578125 10.925781 -4.578125 Z M 10.925781 -4.578125 " fill-opacity="1" fill-rule="nonzero"/></g></svg>