<?xml version="1.0" encoding="UTF-8"?>
<svg id="Laag_1" data-name="Laag 1" xmlns="http://www.w3.org/2000/svg" xmlns:xlink="http://www.w3.org/1999/xlink" viewBox="0 0 200 50">
  <defs>
    <style>
      .cls-1 {
        fill: #5852f2;
        font-size: 18px;
      }

      .cls-1, .cls-2 {
        font-family: NeueMontreal-Bold, 'Neue Montreal';
        font-weight: 700;
      }

      .cls-3 {
        stroke: url(#Naamloos_verloop_125-3);
      }

      .cls-3, .cls-4, .cls-5, .cls-6 {
        fill: none;
        stroke-miterlimit: 10;
        stroke-width: 1.05px;
      }

      .cls-2 {
        fill: #f9f9f9;
        font-size: 14.44px;
      }

      .cls-7 {
        fill: #ef49f2;
      }

      .cls-8 {
        letter-spacing: 0em;
      }

      .cls-4 {
        stroke: url(#Naamloos_verloop_125);
      }

      .cls-9 {
        fill: url(#Naamloos_verloop_125-4);
      }

      .cls-10 {
        letter-spacing: 0em;
      }

      .cls-5 {
        stroke: url(#Naamloos_verloop_125-2);
      }

      .cls-6 {
        stroke: url(#Naamloos_verloop_127);
      }
    </style>
    <linearGradient id="Naamloos_verloop_125" data-name="Naamloos verloop 125" x1="10.49" y1="14.35" x2="39.88" y2="14.35" gradientUnits="userSpaceOnUse">
      <stop offset="0" stop-color="#5852f2"/>
      <stop offset="1" stop-color="#ef49f2"/>
    </linearGradient>
    <linearGradient id="Naamloos_verloop_127" data-name="Naamloos verloop 127" x1="38.09" y1="24.84" x2="55.07" y2="24.84" gradientUnits="userSpaceOnUse">
      <stop offset="0" stop-color="#ef49f2"/>
      <stop offset="1" stop-color="#5852f2"/>
    </linearGradient>
    <linearGradient id="Naamloos_verloop_125-2" data-name="Naamloos verloop 125" x1="10.61" y1="34.83" x2="39.76" y2="34.83" xlink:href="#Naamloos_verloop_125"/>
    <linearGradient id="Naamloos_verloop_125-3" data-name="Naamloos verloop 125" x1="14.35" y1="24.45" x2="43.46" y2="24.45" xlink:href="#Naamloos_verloop_125"/>
    <linearGradient id="Naamloos_verloop_125-4" data-name="Naamloos verloop 125" x1="20.96" y1="24.45" x2="40.4" y2="24.45" xlink:href="#Naamloos_verloop_125"/>
  </defs>
  <text class="cls-1" transform="translate(63.16 30.54)"><tspan x="0" y="0">S</tspan><tspan class="cls-8" x="11.65" y="0">l</tspan><tspan x="15.88" y="0">immer m</tspan><tspan class="cls-10" x="87.07" y="0">e</tspan><tspan x="96.97" y="0">t AI</tspan></text>
  <g>
    <path class="cls-4" d="M35.27,4.09l3.72,6.89c-2.67-.06-5.34-.13-8-.19-1.4,2.29-2.8,4.57-4.2,6.86-3.15.43-6.31.86-9.46,1.28-.79,1.81-1.59,3.61-2.38,5.42-1.28-2.39-2.56-4.79-3.84-7.18,2.77-4.5,5.53-9,8.3-13.5,5.29.14,10.58.28,15.87.41Z"/>
    <path class="cls-6" d="M38.99,10.98c2.62.08,5.23.16,7.85.24l7.63,13.95c-2.77,4.52-5.54,9.04-8.3,13.56l-7.17-.19,3.73-9.36c-1.24-1.55-2.48-3.1-3.73-4.65,1.29-2.16,2.58-4.31,3.87-6.47-1.29-2.36-2.58-4.72-3.87-7.08Z"/>
    <path class="cls-5" d="M14.94,24.45l-3.72,8.83c3.3,4.18,6.59,8.36,9.89,12.53,5.21-.72,10.41-1.44,15.62-2.16.76-1.84,1.51-3.67,2.27-5.51-2.91-.08-5.81-.15-8.72-.23-1.26-2.27-2.52-4.54-3.78-6.82-2.61-.1-5.22-.2-7.83-.29-1.24-2.12-2.48-4.24-3.72-6.36Z"/>
    <path class="cls-3" d="M26.78,17.65c1.4-2.29,2.8-4.57,4.2-6.86,2.67.06,5.34.13,8,.19,1.29,2.36,2.58,4.72,3.87,7.08-1.29,2.15-2.58,4.29-3.87,6.44,1.24,1.56,2.48,3.12,3.73,4.68-1.17,2.98-2.34,5.95-3.51,8.93-2.98-.06-5.96-.13-8.93-.19-1.27-2.27-2.55-4.55-3.82-6.82-2.6-.1-5.19-.2-7.79-.29l-3.72-6.46c.79-1.81,1.59-3.61,2.38-5.42,3.15-.43,6.31-.86,9.46-1.28Z"/>
    <circle class="cls-9" cx="30.68" cy="24.45" r="9.72"/>
    <circle class="cls-7" cx="19.07" cy="3.31" r="2.1"/>
    <circle class="cls-7" cx="47.13" cy="10.79" r="2.1"/>
    <circle class="cls-7" cx="16.97" cy="18.64" r="2.1"/>
    <circle class="cls-7" cx="20.79" cy="46.69" r="2.1"/>
    <circle class="cls-7" cx="46.41" cy="39.22" r="2.1"/>
    <circle class="cls-7" cx="43.21" cy="29.32" r="2.1"/>
    <text class="cls-2" transform="translate(25.54 29.2)"><tspan x="0" y="0">S</tspan></text>
  </g>
</svg>