<svg xmlns="http://www.w3.org/2000/svg" xmlns:xlink="http://www.w3.org/1999/xlink" width="256" zoomAndPan="magnify" viewBox="0 0 192 191.999996" height="256" preserveAspectRatio="xMidYMid meet" version="1.0"><defs><g/><clipPath id="cd5498b694"><path d="M 173.648438 78.441406 L 176.828125 78.441406 L 176.828125 81.371094 L 173.648438 81.371094 Z M 173.648438 78.441406 " clip-rule="nonzero"/></clipPath><clipPath id="79e389e106"><path d="M 139.859375 96.097656 L 141.335938 96.097656 L 141.335938 99.03125 L 139.859375 99.03125 Z M 139.859375 96.097656 " clip-rule="nonzero"/></clipPath><clipPath id="a9b10c8609"><path d="M 63.238281 54.863281 L 144.214844 54.863281 L 144.214844 139 L 63.238281 139 Z M 63.238281 54.863281 " clip-rule="nonzero"/></clipPath><clipPath id="1a6b27912b"><path d="M 80.488281 54.863281 L 126.964844 54.863281 C 131.542969 54.863281 135.929688 56.679688 139.164062 59.914062 C 142.398438 63.148438 144.214844 67.539062 144.214844 72.113281 L 144.214844 121.449219 C 144.214844 126.023438 142.398438 130.410156 139.164062 133.644531 C 135.929688 136.878906 131.542969 138.699219 126.964844 138.699219 L 80.488281 138.699219 C 75.914062 138.699219 71.527344 136.878906 68.289062 133.644531 C 65.054688 130.410156 63.238281 126.023438 63.238281 121.449219 L 63.238281 72.113281 C 63.238281 67.539062 65.054688 63.148438 68.289062 59.914062 C 71.527344 56.679688 75.914062 54.863281 80.488281 54.863281 Z M 80.488281 54.863281 " clip-rule="nonzero"/></clipPath></defs><rect x="-19.2" width="230.4" fill="#ffffff" y="-19.2" height="230.399995" fill-opacity="1"/><rect x="-19.2" width="230.4" fill="#5852f2" y="-19.2" height="230.399995" fill-opacity="1"/><g clip-path="url(#cd5498b694)"><path fill="#fafafa" d="M 173.648438 78.441406 L 176.832031 78.441406 L 176.832031 81.371094 L 173.648438 81.371094 Z M 173.648438 78.441406 " fill-opacity="1" fill-rule="nonzero"/></g><path fill="#ffffff" d="M 151.804688 33.246094 C 151.804688 33.539062 151.859375 33.824219 151.972656 34.09375 C 152.085938 34.367188 152.246094 34.605469 152.453125 34.8125 C 152.660156 35.023438 152.902344 35.183594 153.171875 35.292969 C 153.445312 35.40625 153.726562 35.464844 154.019531 35.464844 C 154.316406 35.464844 154.597656 35.40625 154.871094 35.292969 C 155.140625 35.183594 155.382812 35.023438 155.589844 34.8125 C 155.796875 34.605469 155.957031 34.367188 156.070312 34.09375 C 156.183594 33.824219 156.238281 33.539062 156.238281 33.246094 C 156.238281 32.953125 156.183594 32.667969 156.070312 32.398438 C 155.957031 32.125 155.796875 31.886719 155.589844 31.675781 C 155.382812 31.46875 155.140625 31.308594 154.871094 31.195312 C 154.597656 31.082031 154.316406 31.027344 154.019531 31.027344 C 153.726562 31.027344 153.445312 31.082031 153.171875 31.195312 C 152.902344 31.308594 152.660156 31.46875 152.453125 31.675781 C 152.246094 31.886719 152.085938 32.125 151.972656 32.398438 C 151.859375 32.667969 151.804688 32.953125 151.804688 33.246094 Z M 151.804688 33.246094 " fill-opacity="1" fill-rule="nonzero"/><path fill="#ffffff" d="M 73.699219 102.652344 L 96.46875 79.738281 L 120.808594 79.738281 L 134.015625 92.945312 L 213.675781 92.945312 L 213.675781 92.195312 L 134.320312 92.195312 L 121.117188 78.988281 L 96.160156 78.988281 L 73.167969 102.125 Z M 73.699219 102.652344 " fill-opacity="1" fill-rule="nonzero"/><path fill="#ffffff" d="M 58.054688 102.652344 L 73.476562 87.214844 L 73.476562 79.519531 L 90.046875 62.949219 L 132.925781 62.949219 L 142.59375 72.613281 L 241.644531 72.613281 L 241.644531 71.863281 L 142.914062 71.863281 L 133.25 62.199219 L 89.738281 62.199219 L 89.636719 62.316406 L 72.726562 79.210938 L 72.726562 86.90625 L 57.523438 102.125 Z M 58.054688 102.652344 " fill-opacity="1" fill-rule="nonzero"/><path fill="#ffffff" d="M 140.566406 82.089844 L 278.574219 82.089844 L 285.523438 75.140625 L 284.996094 74.613281 L 278.265625 81.339844 L 140.875 81.339844 L 127.566406 68.046875 L 95.144531 68.046875 L 95.144531 68.792969 L 127.257812 68.792969 Z M 140.566406 82.089844 " fill-opacity="1" fill-rule="nonzero"/><path fill="#ffffff" d="M 148.027344 63.769531 C 148.1875 63.769531 148.292969 63.710938 148.378906 63.652344 C 150.761719 62.917969 206.285156 63.449219 227.558594 63.710938 L 227.574219 62.960938 C 227.382812 62.960938 207.742188 62.714844 188.234375 62.59375 C 151.863281 62.375 148.496094 62.742188 147.984375 63.007812 C 146.707031 62.742188 139.597656 54.824219 136.539062 51.429688 C 135.351562 50.109375 134.484375 49.140625 134.132812 48.785156 C 133.71875 48.375 132.632812 47.289062 94.441406 48.625 C 93.5 48.65625 92.867188 48.683594 92.792969 48.683594 L 92.792969 49.433594 C 92.882812 49.433594 93.382812 49.417969 94.46875 49.375 C 128.328125 48.183594 133.117188 48.949219 133.617188 49.332031 C 133.953125 49.667969 134.867188 50.683594 135.996094 51.945312 C 142.695312 59.421875 146.808594 63.742188 148.011719 63.785156 C 148.011719 63.769531 148.027344 63.769531 148.027344 63.769531 Z M 148.027344 63.769531 " fill-opacity="1" fill-rule="nonzero"/><path fill="#ffffff" d="M 69.203125 62.84375 L 89.0625 42.984375 L 139.582031 42.984375 C 140.109375 43.585938 142.417969 46.171875 144.824219 48.726562 C 150.453125 54.707031 151.140625 54.707031 151.480469 54.707031 L 195.285156 54.707031 L 195.285156 53.957031 L 151.464844 53.957031 C 150.597656 53.824219 144.957031 47.949219 140.023438 42.351562 L 139.902344 42.222656 L 88.738281 42.222656 L 68.660156 62.300781 Z M 69.203125 62.84375 " fill-opacity="1" fill-rule="nonzero"/><path fill="#ffffff" d="M -9.503906 97.542969 L 47.183594 97.542969 L 62.179688 82.542969 L 62.179688 59.1875 L 88.3125 33.054688 L 154.019531 33.054688 L 154.019531 32.289062 L 87.992188 32.289062 L 87.886719 32.40625 L 61.433594 58.863281 L 61.433594 82.234375 L 46.875 96.792969 L -9.503906 96.792969 Z M -9.503906 97.542969 " fill-opacity="1" fill-rule="nonzero"/><path fill="#ffffff" d="M 95.144531 11.460938 L 122.953125 11.460938 L 136.378906 -1.964844 L 152.65625 -1.964844 L 171.105469 -20.417969 L 170.578125 -20.945312 L 152.347656 -2.714844 L 136.054688 -2.714844 L 122.644531 10.710938 L 95.144531 10.710938 Z M 95.144531 11.460938 " fill-opacity="1" fill-rule="nonzero"/><path fill="#ffffff" d="M 95.144531 2.675781 L 117.695312 2.675781 L 154.285156 -33.914062 L 153.757812 -34.445312 L 117.386719 1.925781 L 95.144531 1.925781 Z M 95.144531 2.675781 " fill-opacity="1" fill-rule="nonzero"/><path fill="#ffffff" d="M -9.503906 79.738281 L 29.570312 79.738281 L 37.429688 71.894531 L 37.429688 52.753906 L 79.601562 10.578125 L 79.601562 -17.300781 L 104.179688 -41.863281 L 103.636719 -42.40625 L 78.855469 -17.609375 L 78.855469 10.269531 L 36.679688 52.445312 L 36.679688 71.585938 L 29.261719 78.988281 L -9.503906 78.988281 Z M -9.503906 79.738281 " fill-opacity="1" fill-rule="nonzero"/><path fill="#ef49f2" d="M -9.503906 88.289062 L 38.574219 88.289062 L 48.871094 77.992188 L 48.871094 57.101562 L 82.320312 23.636719 L 126.949219 23.636719 L 137.816406 12.78125 L 169.738281 12.78125 L 169.738281 10.828125 L 137.011719 10.828125 L 126.140625 21.683594 L 81.511719 21.683594 L 46.917969 56.292969 L 46.917969 77.183594 L 37.765625 86.335938 L -9.503906 86.335938 Z M -9.503906 88.289062 " fill-opacity="1" fill-rule="nonzero"/><path fill="#ef49f2" d="M 165.832031 11.460938 C 165.832031 11.980469 165.929688 12.476562 166.128906 12.957031 C 166.328125 13.433594 166.609375 13.855469 166.976562 14.222656 C 167.34375 14.589844 167.765625 14.871094 168.242188 15.070312 C 168.722656 15.269531 169.222656 15.367188 169.738281 15.367188 C 170.257812 15.367188 170.753906 15.269531 171.234375 15.070312 C 171.714844 14.871094 172.136719 14.589844 172.503906 14.222656 C 172.867188 13.855469 173.152344 13.433594 173.347656 12.957031 C 173.546875 12.476562 173.648438 11.980469 173.648438 11.460938 C 173.648438 10.941406 173.546875 10.445312 173.347656 9.964844 C 173.152344 9.488281 172.867188 9.0625 172.503906 8.699219 C 172.136719 8.332031 171.714844 8.046875 171.234375 7.851562 C 170.753906 7.652344 170.257812 7.554688 169.738281 7.554688 C 169.222656 7.554688 168.722656 7.652344 168.242188 7.851562 C 167.765625 8.046875 167.34375 8.332031 166.976562 8.699219 C 166.609375 9.0625 166.328125 9.488281 166.128906 9.964844 C 165.929688 10.445312 165.832031 10.941406 165.832031 11.460938 Z M 165.832031 11.460938 " fill-opacity="1" fill-rule="nonzero"/><path fill="#ffffff" d="M 92.925781 1.898438 C 92.925781 2.191406 92.984375 2.472656 93.09375 2.746094 C 93.207031 3.019531 93.367188 3.257812 93.578125 3.464844 C 93.785156 3.675781 94.023438 3.835938 94.296875 3.945312 C 94.566406 4.058594 94.851562 4.117188 95.144531 4.117188 C 95.4375 4.117188 95.722656 4.058594 95.992188 3.945312 C 96.265625 3.835938 96.503906 3.675781 96.714844 3.464844 C 96.921875 3.257812 97.082031 3.019531 97.195312 2.746094 C 97.304688 2.472656 97.363281 2.191406 97.363281 1.898438 C 97.363281 1.601562 97.304688 1.320312 97.195312 1.046875 C 97.082031 0.777344 96.921875 0.535156 96.714844 0.328125 C 96.503906 0.121094 96.265625 -0.0390625 95.992188 -0.152344 C 95.722656 -0.265625 95.4375 -0.320312 95.144531 -0.320312 C 94.851562 -0.320312 94.566406 -0.265625 94.296875 -0.152344 C 94.023438 -0.0390625 93.785156 0.121094 93.578125 0.328125 C 93.367188 0.535156 93.207031 0.777344 93.09375 1.046875 C 92.984375 1.320312 92.925781 1.601562 92.925781 1.898438 Z M 92.925781 1.898438 " fill-opacity="1" fill-rule="nonzero"/><path fill="#ffffff" d="M 92.925781 11.050781 C 92.925781 11.34375 92.984375 11.625 93.09375 11.898438 C 93.207031 12.167969 93.367188 12.410156 93.578125 12.617188 C 93.785156 12.824219 94.023438 12.984375 94.296875 13.097656 C 94.566406 13.210938 94.851562 13.265625 95.144531 13.265625 C 95.4375 13.265625 95.722656 13.210938 95.992188 13.097656 C 96.265625 12.984375 96.503906 12.824219 96.714844 12.617188 C 96.921875 12.410156 97.082031 12.167969 97.195312 11.898438 C 97.304688 11.625 97.363281 11.34375 97.363281 11.050781 C 97.363281 10.753906 97.304688 10.472656 97.195312 10.199219 C 97.082031 9.929688 96.921875 9.6875 96.714844 9.480469 C 96.503906 9.273438 96.265625 9.113281 95.992188 9 C 95.722656 8.886719 95.4375 8.832031 95.144531 8.832031 C 94.851562 8.832031 94.566406 8.886719 94.296875 9 C 94.023438 9.113281 93.785156 9.273438 93.578125 9.480469 C 93.367188 9.6875 93.207031 9.929688 93.09375 10.199219 C 92.984375 10.472656 92.925781 10.753906 92.925781 11.050781 Z M 92.925781 11.050781 " fill-opacity="1" fill-rule="nonzero"/><path fill="#ffffff" d="M 90.578125 48.550781 C 90.578125 48.847656 90.632812 49.128906 90.746094 49.402344 C 90.859375 49.671875 91.019531 49.914062 91.226562 50.121094 C 91.433594 50.328125 91.671875 50.488281 91.945312 50.601562 C 92.21875 50.714844 92.5 50.769531 92.792969 50.769531 C 93.089844 50.769531 93.371094 50.714844 93.644531 50.601562 C 93.914062 50.488281 94.15625 50.328125 94.363281 50.121094 C 94.570312 49.914062 94.730469 49.671875 94.84375 49.402344 C 94.957031 49.128906 95.011719 48.847656 95.011719 48.550781 C 95.011719 48.257812 94.957031 47.976562 94.84375 47.703125 C 94.730469 47.429688 94.570312 47.191406 94.363281 46.984375 C 94.15625 46.777344 93.914062 46.617188 93.644531 46.503906 C 93.371094 46.390625 93.089844 46.332031 92.792969 46.332031 C 92.5 46.332031 92.21875 46.390625 91.945312 46.503906 C 91.671875 46.617188 91.433594 46.777344 91.226562 46.984375 C 91.019531 47.191406 90.859375 47.429688 90.746094 47.703125 C 90.632812 47.976562 90.578125 48.257812 90.578125 48.550781 Z M 90.578125 48.550781 " fill-opacity="1" fill-rule="nonzero"/><path fill="#ffffff" d="M 66.457031 62.84375 C 66.457031 63.140625 66.511719 63.421875 66.625 63.695312 C 66.738281 63.964844 66.898438 64.207031 67.105469 64.414062 C 67.3125 64.621094 67.554688 64.78125 67.824219 64.894531 C 68.097656 65.007812 68.378906 65.0625 68.675781 65.0625 C 68.96875 65.0625 69.25 65.007812 69.523438 64.894531 C 69.792969 64.78125 70.035156 64.621094 70.242188 64.414062 C 70.449219 64.207031 70.609375 63.964844 70.722656 63.695312 C 70.835938 63.421875 70.890625 63.140625 70.890625 62.84375 C 70.890625 62.550781 70.835938 62.269531 70.722656 61.996094 C 70.609375 61.722656 70.449219 61.484375 70.242188 61.277344 C 70.035156 61.070312 69.792969 60.910156 69.523438 60.796875 C 69.25 60.683594 68.96875 60.628906 68.675781 60.628906 C 68.378906 60.628906 68.097656 60.683594 67.824219 60.796875 C 67.554688 60.910156 67.3125 61.070312 67.105469 61.277344 C 66.898438 61.484375 66.738281 61.722656 66.625 61.996094 C 66.511719 62.269531 66.457031 62.550781 66.457031 62.84375 Z M 66.457031 62.84375 " fill-opacity="1" fill-rule="nonzero"/><path fill="#ffffff" d="M 92.792969 68.515625 C 92.792969 68.808594 92.851562 69.09375 92.964844 69.363281 C 93.074219 69.636719 93.234375 69.875 93.445312 70.082031 C 93.652344 70.292969 93.890625 70.453125 94.164062 70.566406 C 94.433594 70.675781 94.71875 70.734375 95.011719 70.734375 C 95.308594 70.734375 95.589844 70.675781 95.863281 70.566406 C 96.132812 70.453125 96.371094 70.292969 96.582031 70.082031 C 96.789062 69.875 96.949219 69.636719 97.0625 69.363281 C 97.175781 69.09375 97.230469 68.808594 97.230469 68.515625 C 97.230469 68.222656 97.175781 67.9375 97.0625 67.667969 C 96.949219 67.394531 96.789062 67.15625 96.582031 66.945312 C 96.371094 66.738281 96.132812 66.578125 95.863281 66.464844 C 95.589844 66.351562 95.308594 66.296875 95.011719 66.296875 C 94.71875 66.296875 94.433594 66.351562 94.164062 66.464844 C 93.890625 66.578125 93.652344 66.738281 93.445312 66.945312 C 93.234375 67.15625 93.074219 67.394531 92.964844 67.667969 C 92.851562 67.9375 92.792969 68.222656 92.792969 68.515625 Z M 92.792969 68.515625 " fill-opacity="1" fill-rule="nonzero"/><path stroke-linecap="butt" transform="matrix(-0.146897, 0, 0, 0.146897, 327.815108, -131.764182)" fill-opacity="1" fill="#ffffff" fill-rule="nonzero" stroke-linejoin="miter" d="M 1615.598701 1024.091132 L 1613.311812 1024.011357 C 1615.306192 968.913279 1617.087838 885.202492 1613.604321 880.708489 L 1360.690315 627.794484 L 1362.312411 626.198979 L 1615.199825 879.112985 C 1616.210311 880.096879 1618.709934 882.596502 1617.406939 953.888948 C 1616.901696 988.99004 1615.598701 1023.798623 1615.598701 1024.091132 Z M 1615.598701 1024.091132 " stroke="#066cb1" stroke-width="3" stroke-opacity="1" stroke-miterlimit="10"/><path fill="#ffffff" d="M 10.648438 143.285156 C 10.648438 143.582031 10.707031 143.863281 10.820312 144.136719 C 10.929688 144.40625 11.089844 144.644531 11.300781 144.855469 C 11.507812 145.0625 11.746094 145.222656 12.019531 145.335938 C 12.289062 145.449219 12.574219 145.503906 12.867188 145.503906 C 13.160156 145.503906 13.445312 145.449219 13.714844 145.335938 C 13.988281 145.222656 14.226562 145.0625 14.4375 144.855469 C 14.644531 144.644531 14.804688 144.40625 14.917969 144.136719 C 15.03125 143.863281 15.085938 143.582031 15.085938 143.285156 C 15.085938 142.992188 15.03125 142.707031 14.917969 142.4375 C 14.804688 142.164062 14.644531 141.925781 14.4375 141.71875 C 14.226562 141.507812 13.988281 141.347656 13.714844 141.238281 C 13.445312 141.125 13.160156 141.066406 12.867188 141.066406 C 12.574219 141.066406 12.289062 141.125 12.019531 141.238281 C 11.746094 141.347656 11.507812 141.507812 11.300781 141.71875 C 11.089844 141.925781 10.929688 142.164062 10.820312 142.4375 C 10.707031 142.707031 10.648438 142.992188 10.648438 143.285156 Z M 10.648438 143.285156 " fill-opacity="1" fill-rule="nonzero"/><path fill="#ffffff" d="M 51.207031 164.804688 C 51.207031 165.101562 51.265625 165.382812 51.375 165.65625 C 51.488281 165.925781 51.648438 166.167969 51.859375 166.375 C 52.066406 166.582031 52.304688 166.742188 52.578125 166.855469 C 52.847656 166.96875 53.132812 167.023438 53.425781 167.023438 C 53.71875 167.023438 54.003906 166.96875 54.273438 166.855469 C 54.546875 166.742188 54.785156 166.582031 54.996094 166.375 C 55.203125 166.167969 55.363281 165.925781 55.476562 165.65625 C 55.585938 165.382812 55.644531 165.101562 55.644531 164.804688 C 55.644531 164.511719 55.585938 164.230469 55.476562 163.957031 C 55.363281 163.6875 55.203125 163.445312 54.996094 163.238281 C 54.785156 163.03125 54.546875 162.871094 54.273438 162.757812 C 54.003906 162.644531 53.71875 162.589844 53.425781 162.589844 C 53.132812 162.589844 52.847656 162.644531 52.578125 162.757812 C 52.304688 162.871094 52.066406 163.03125 51.859375 163.238281 C 51.648438 163.445312 51.488281 163.6875 51.375 163.957031 C 51.265625 164.230469 51.207031 164.511719 51.207031 164.804688 Z M 51.207031 164.804688 " fill-opacity="1" fill-rule="nonzero"/><path fill="#ffffff" d="M 133.75 95.398438 L 110.964844 118.296875 L 86.640625 118.296875 L 73.433594 105.109375 L -6.230469 105.109375 L -6.230469 105.855469 L 73.125 105.855469 L 86.316406 119.046875 L 111.273438 119.046875 L 134.277344 95.925781 Z M 133.75 95.398438 " fill-opacity="1" fill-rule="nonzero"/><path fill="#ffffff" d="M 149.394531 95.398438 L 133.953125 110.820312 L 133.953125 118.519531 L 117.386719 135.089844 L 74.503906 135.089844 L 64.839844 125.421875 L -34.214844 125.421875 L -34.214844 126.171875 L 64.53125 126.171875 L 74.195312 135.839844 L 117.695312 135.839844 L 117.8125 135.734375 L 134.703125 118.828125 L 134.703125 111.144531 L 149.921875 95.925781 Z M 149.394531 95.398438 " fill-opacity="1" fill-rule="nonzero"/><path fill="#ffffff" d="M 66.882812 115.964844 L -71.128906 115.964844 L -78.089844 122.910156 L -77.5625 123.441406 L -70.820312 116.710938 L 66.574219 116.710938 L 79.867188 130.007812 L 112.300781 130.007812 L 112.300781 129.257812 L 80.175781 129.257812 Z M 66.882812 115.964844 " fill-opacity="1" fill-rule="nonzero"/><path fill="#ffffff" d="M 59.40625 134.28125 C 59.242188 134.28125 59.140625 134.339844 59.050781 134.398438 C 56.671875 135.132812 1.144531 134.605469 -20.125 134.339844 L -20.140625 135.089844 C -19.949219 135.089844 -0.308594 135.339844 19.199219 135.457031 C 55.570312 135.675781 58.933594 135.308594 59.449219 135.046875 C 60.726562 135.308594 67.835938 143.226562 70.890625 146.621094 C 72.082031 147.941406 72.949219 148.914062 73.300781 149.265625 C 73.710938 149.675781 74.800781 150.761719 112.992188 149.425781 C 113.933594 149.398438 114.566406 149.367188 114.636719 149.367188 L 114.636719 148.617188 C 114.550781 148.617188 114.050781 148.632812 112.964844 148.675781 C 79.105469 149.867188 74.316406 149.101562 73.816406 148.722656 C 73.476562 148.382812 72.566406 147.371094 71.433594 146.105469 C 64.738281 138.628906 60.625 134.3125 59.417969 134.265625 C 59.417969 134.28125 59.417969 134.28125 59.40625 134.28125 Z M 59.40625 134.28125 " fill-opacity="1" fill-rule="nonzero"/><path fill="#ffffff" d="M 138.246094 135.207031 L 118.382812 155.066406 L 67.867188 155.066406 C 67.335938 154.464844 65.03125 151.878906 62.621094 149.324219 C 56.996094 143.34375 56.304688 143.34375 55.96875 143.34375 L 12.148438 143.34375 L 12.148438 144.09375 L 55.96875 144.09375 C 56.835938 144.226562 62.476562 150.101562 67.410156 155.699219 L 67.527344 155.832031 L 118.691406 155.832031 L 138.773438 135.734375 Z M 138.246094 135.207031 " fill-opacity="1" fill-rule="nonzero"/><path fill="#ffffff" d="M 216.9375 100.507812 L 160.265625 100.507812 L 145.265625 115.492188 L 145.265625 138.863281 L 119.132812 164.996094 L 53.425781 164.996094 L 53.425781 165.746094 L 119.441406 165.746094 L 146.015625 139.171875 L 146.015625 115.816406 L 160.574219 101.257812 L 216.9375 101.257812 Z M 216.9375 100.507812 " fill-opacity="1" fill-rule="nonzero"/><path fill="#ffffff" d="M 112.300781 186.589844 L 84.496094 186.589844 L 71.066406 200.019531 L 54.777344 200.019531 L 36.34375 218.46875 L 36.871094 218.996094 L 55.085938 200.765625 L 71.375 200.765625 L 84.804688 187.339844 L 112.300781 187.339844 Z M 112.300781 186.589844 " fill-opacity="1" fill-rule="nonzero"/><path fill="#ffffff" d="M 216.9375 118.296875 L 177.863281 118.296875 L 170.019531 126.15625 L 170.019531 145.296875 L 127.84375 187.472656 L 127.84375 215.339844 L 103.269531 239.914062 L 103.796875 240.445312 L 128.59375 215.664062 L 128.59375 187.78125 L 170.765625 145.605469 L 170.765625 126.464844 L 178.171875 119.046875 L 216.9375 119.046875 Z M 216.9375 118.296875 " fill-opacity="1" fill-rule="nonzero"/><path fill="#ef49f2" d="M 216.9375 109.765625 L 168.871094 109.765625 L 158.574219 120.046875 L 158.574219 140.949219 L 125.125 174.414062 L 80.484375 174.414062 L 69.628906 185.269531 L 37.707031 185.269531 L 37.707031 187.222656 L 70.4375 187.222656 L 81.292969 176.351562 L 125.917969 176.351562 L 160.527344 141.757812 L 160.527344 120.855469 L 169.679688 111.703125 L 216.9375 111.703125 Z M 216.9375 109.765625 " fill-opacity="1" fill-rule="nonzero"/><path fill="#ef49f2" d="M 33.800781 186.589844 C 33.800781 187.109375 33.898438 187.609375 34.097656 188.085938 C 34.296875 188.566406 34.578125 188.988281 34.945312 189.355469 C 35.3125 189.71875 35.734375 190.003906 36.210938 190.203125 C 36.691406 190.398438 37.191406 190.5 37.707031 190.5 C 38.226562 190.5 38.722656 190.398438 39.203125 190.203125 C 39.683594 190.003906 40.105469 189.71875 40.472656 189.355469 C 40.835938 188.988281 41.121094 188.566406 41.316406 188.085938 C 41.515625 187.609375 41.617188 187.109375 41.617188 186.589844 C 41.617188 186.074219 41.515625 185.574219 41.316406 185.097656 C 41.121094 184.617188 40.835938 184.195312 40.472656 183.828125 C 40.105469 183.460938 39.683594 183.179688 39.203125 182.980469 C 38.722656 182.78125 38.226562 182.683594 37.707031 182.683594 C 37.191406 182.683594 36.691406 182.78125 36.210938 182.980469 C 35.734375 183.179688 35.3125 183.460938 34.945312 183.828125 C 34.578125 184.195312 34.296875 184.617188 34.097656 185.097656 C 33.898438 185.574219 33.800781 186.074219 33.800781 186.589844 Z M 33.800781 186.589844 " fill-opacity="1" fill-rule="nonzero"/><path fill="#ffffff" d="M 110.085938 187.003906 C 110.085938 187.296875 110.140625 187.578125 110.253906 187.851562 C 110.367188 188.125 110.527344 188.363281 110.734375 188.570312 C 110.941406 188.777344 111.183594 188.9375 111.453125 189.050781 C 111.726562 189.164062 112.007812 189.21875 112.300781 189.222656 C 112.597656 189.21875 112.878906 189.164062 113.152344 189.050781 C 113.421875 188.9375 113.664062 188.777344 113.871094 188.570312 C 114.078125 188.363281 114.238281 188.125 114.351562 187.851562 C 114.464844 187.578125 114.519531 187.296875 114.519531 187.003906 C 114.519531 186.707031 114.464844 186.425781 114.351562 186.152344 C 114.238281 185.882812 114.078125 185.640625 113.871094 185.433594 C 113.664062 185.226562 113.421875 185.066406 113.152344 184.953125 C 112.878906 184.839844 112.597656 184.785156 112.300781 184.785156 C 112.007812 184.785156 111.726562 184.839844 111.453125 184.953125 C 111.183594 185.066406 110.941406 185.226562 110.734375 185.433594 C 110.527344 185.640625 110.367188 185.882812 110.253906 186.152344 C 110.140625 186.425781 110.085938 186.707031 110.085938 187.003906 Z M 110.085938 187.003906 " fill-opacity="1" fill-rule="nonzero"/><path fill="#ffffff" d="M 112.417969 149.484375 C 112.417969 149.777344 112.476562 150.0625 112.589844 150.332031 C 112.703125 150.605469 112.863281 150.84375 113.070312 151.054688 C 113.277344 151.261719 113.515625 151.421875 113.789062 151.535156 C 114.0625 151.648438 114.34375 151.703125 114.636719 151.703125 C 114.933594 151.703125 115.214844 151.648438 115.488281 151.535156 C 115.757812 151.421875 116 151.261719 116.207031 151.054688 C 116.414062 150.84375 116.574219 150.605469 116.6875 150.332031 C 116.800781 150.0625 116.855469 149.777344 116.855469 149.484375 C 116.855469 149.191406 116.800781 148.90625 116.6875 148.636719 C 116.574219 148.363281 116.414062 148.125 116.207031 147.917969 C 116 147.707031 115.757812 147.546875 115.488281 147.4375 C 115.214844 147.324219 114.933594 147.265625 114.636719 147.265625 C 114.34375 147.265625 114.0625 147.324219 113.789062 147.4375 C 113.515625 147.546875 113.277344 147.707031 113.070312 147.917969 C 112.863281 148.125 112.703125 148.363281 112.589844 148.636719 C 112.476562 148.90625 112.417969 149.191406 112.417969 149.484375 Z M 112.417969 149.484375 " fill-opacity="1" fill-rule="nonzero"/><path fill="#ffffff" d="M 136.554688 135.207031 C 136.554688 135.5 136.609375 135.785156 136.722656 136.054688 C 136.835938 136.328125 136.996094 136.566406 137.203125 136.773438 C 137.414062 136.984375 137.652344 137.144531 137.925781 137.257812 C 138.195312 137.367188 138.480469 137.425781 138.773438 137.425781 C 139.066406 137.425781 139.351562 137.367188 139.621094 137.257812 C 139.894531 137.144531 140.132812 136.984375 140.339844 136.773438 C 140.550781 136.566406 140.710938 136.328125 140.824219 136.054688 C 140.933594 135.785156 140.992188 135.5 140.992188 135.207031 C 140.992188 134.914062 140.933594 134.628906 140.824219 134.359375 C 140.710938 134.085938 140.550781 133.847656 140.339844 133.636719 C 140.132812 133.429688 139.894531 133.269531 139.621094 133.15625 C 139.351562 133.042969 139.066406 132.988281 138.773438 132.988281 C 138.480469 132.988281 138.195312 133.042969 137.925781 133.15625 C 137.652344 133.269531 137.414062 133.429688 137.203125 133.636719 C 136.996094 133.847656 136.835938 134.085938 136.722656 134.359375 C 136.609375 134.628906 136.554688 134.914062 136.554688 135.207031 Z M 136.554688 135.207031 " fill-opacity="1" fill-rule="nonzero"/><path fill="#ffffff" d="M 110.203125 129.535156 C 110.203125 129.832031 110.257812 130.113281 110.371094 130.386719 C 110.484375 130.65625 110.644531 130.898438 110.851562 131.105469 C 111.058594 131.3125 111.300781 131.472656 111.570312 131.585938 C 111.84375 131.699219 112.125 131.753906 112.417969 131.753906 C 112.714844 131.753906 112.996094 131.699219 113.269531 131.585938 C 113.539062 131.472656 113.78125 131.3125 113.988281 131.105469 C 114.195312 130.898438 114.355469 130.65625 114.46875 130.386719 C 114.582031 130.113281 114.636719 129.832031 114.636719 129.535156 C 114.636719 129.242188 114.582031 128.960938 114.46875 128.6875 C 114.355469 128.414062 114.195312 128.175781 113.988281 127.96875 C 113.78125 127.761719 113.539062 127.601562 113.269531 127.488281 C 112.996094 127.375 112.714844 127.316406 112.417969 127.316406 C 112.125 127.316406 111.84375 127.375 111.570312 127.488281 C 111.300781 127.601562 111.058594 127.761719 110.851562 127.96875 C 110.644531 128.175781 110.484375 128.414062 110.371094 128.6875 C 110.257812 128.960938 110.203125 129.242188 110.203125 129.535156 Z M 110.203125 129.535156 " fill-opacity="1" fill-rule="nonzero"/><path stroke-linecap="butt" transform="matrix(-0.146897, 0, 0, 0.146897, 327.815108, -131.764182)" fill-opacity="1" fill="#ffffff" fill-rule="nonzero" stroke-linejoin="miter" d="M 1435.49287 2117.995394 L 1437.806351 2118.101761 C 1435.811971 2173.199839 1434.003733 2256.910625 1437.48725 2261.404629 L 1690.401256 2514.292042 L 1688.805751 2515.887546 L 1435.811971 2263.000133 C 1434.801485 2261.989647 1432.301862 2259.490024 1433.604857 2188.197578 C 1434.189875 2153.202853 1435.49287 2118.39427 1435.49287 2117.995394 Z M 1435.49287 2117.995394 " stroke="#066cb1" stroke-width="3" stroke-opacity="1" stroke-miterlimit="10"/><path fill="#ef49f2" d="M 79.839844 104.078125 L 89.386719 113.640625 L 108.554688 113.640625 L 126.726562 95.472656 L 117.003906 84.527344 L 99.390625 84.527344 Z M 79.839844 104.078125 " fill-opacity="1" fill-rule="nonzero"/><path fill="#ef49f2" d="M 98.582031 81.265625 L 119.851562 81.265625 L 131.972656 94.914062 L 109.980469 116.902344 L 86.933594 116.902344 L 74.933594 104.902344 Z M 88.785156 115.109375 L 109.171875 115.109375 L 128.753906 95.53125 L 117.679688 83.058594 L 98.789062 83.058594 L 77.765625 104.078125 Z M 88.785156 115.109375 " fill-opacity="1" fill-rule="nonzero"/><g clip-path="url(#79e389e106)"><path fill="#fafafa" d="M 139.859375 96.097656 L 141.335938 96.097656 L 141.335938 99.03125 L 139.859375 99.03125 Z M 139.859375 96.097656 " fill-opacity="1" fill-rule="nonzero"/></g><g clip-path="url(#a9b10c8609)"><g clip-path="url(#1a6b27912b)"><path fill="#252759" d="M 63.238281 54.863281 L 144.214844 54.863281 L 144.214844 138.6875 L 63.238281 138.6875 Z M 63.238281 54.863281 " fill-opacity="1" fill-rule="nonzero"/></g></g><g fill="#ffffff" fill-opacity="1"><g transform="translate(70.184431, 130.322892)"><g><path d="M 44.5 -1.09375 C 44.5 -0.363281 44.109375 0 43.328125 0 L 33.75 0 C 33.019531 0 32.5625 -0.410156 32.375 -1.234375 L 29.90625 -12.453125 L 15.875 -12.453125 L 13.421875 -1.234375 C 13.234375 -0.410156 12.773438 0 12.046875 0 L 2.46875 0 C 1.6875 0 1.296875 -0.363281 1.296875 -1.09375 C 1.296875 -1.132812 1.304688 -1.191406 1.328125 -1.265625 C 1.359375 -1.335938 1.375 -1.394531 1.375 -1.4375 L 11.5625 -43.875 C 12.113281 -46.070312 12.984375 -47.71875 14.171875 -48.8125 C 15.359375 -49.90625 16.726562 -50.625 18.28125 -50.96875 C 19.832031 -51.3125 21.382812 -51.484375 22.9375 -51.484375 C 24.53125 -51.484375 26.085938 -51.3125 27.609375 -50.96875 C 29.140625 -50.625 30.5 -49.90625 31.6875 -48.8125 C 32.875 -47.71875 33.71875 -46.070312 34.21875 -43.875 L 44.421875 -1.4375 C 44.421875 -1.394531 44.429688 -1.335938 44.453125 -1.265625 C 44.484375 -1.191406 44.5 -1.132812 44.5 -1.09375 Z M 28 -21.84375 L 23.828125 -40.734375 C 23.773438 -41.097656 23.691406 -41.359375 23.578125 -41.515625 C 23.460938 -41.671875 23.25 -41.75 22.9375 -41.75 C 22.425781 -41.75 22.101562 -41.410156 21.96875 -40.734375 L 17.796875 -21.84375 Z M 28 -21.84375 "/></g></g></g><g fill="#ffffff" fill-opacity="1"><g transform="translate(115.972423, 130.322892)"><g><path d="M 16.5 -1.375 C 16.5 -1.007812 16.375 -0.6875 16.125 -0.40625 C 15.875 -0.132812 15.566406 0 15.203125 0 L 6.03125 0 C 5.65625 0 5.351562 -0.132812 5.125 -0.40625 C 4.90625 -0.6875 4.796875 -1.007812 4.796875 -1.375 L 4.796875 -49.5625 C 4.796875 -50.425781 5.207031 -50.859375 6.03125 -50.859375 L 15.203125 -50.859375 C 16.066406 -50.859375 16.5 -50.425781 16.5 -49.5625 Z M 16.5 -1.375 "/></g></g></g><path stroke-linecap="butt" transform="matrix(0, -0.75, 0.75, 0, 116.363088, 238.997387)" fill="none" stroke-linejoin="miter" d="M 0.00172495 0.500258 L 78.168397 0.500258 " stroke="#ffffff" stroke-width="1" stroke-opacity="1" stroke-miterlimit="4"/><path stroke-linecap="round" transform="matrix(0, -0.75, 0.75, 0, 116.363088, 238.997387)" fill-opacity="1" fill="#ffffff" fill-rule="nonzero" stroke-linejoin="round" d="M 81.418397 0.500258 C 81.418397 1.328383 80.746522 2.000258 79.918397 2.000258 C 79.090272 2.000258 78.418397 1.328383 78.418397 0.500258 C 78.418397 -0.327867 79.090272 -0.999742 79.918397 -0.999742 C 80.746522 -0.999742 81.418397 -0.327867 81.418397 0.500258 " stroke="#ffffff" stroke-width="1" stroke-opacity="1" stroke-miterlimit="4"/><path stroke-linecap="butt" transform="matrix(0, 0.75, -0.75, 0, 90.786668, -42.234842)" fill="none" stroke-linejoin="miter" d="M 0.00062288 0.502016 L 78.172503 0.502016 " stroke="#ffffff" stroke-width="1" stroke-opacity="1" stroke-miterlimit="4"/><path stroke-linecap="round" transform="matrix(0, 0.75, -0.75, 0, 90.786668, -42.234842)" fill-opacity="1" fill="#ffffff" fill-rule="nonzero" stroke-linejoin="round" d="M 81.422503 0.502016 C 81.422503 1.330141 80.750628 2.002016 79.922503 2.002016 C 79.089169 2.002016 78.422503 1.330141 78.422503 0.502016 C 78.422503 -0.326109 79.089169 -0.997984 79.922503 -0.997984 C 80.750628 -0.997984 81.422503 -0.326109 81.422503 0.502016 " stroke="#ffffff" stroke-width="1" stroke-opacity="1" stroke-miterlimit="4"/></svg>