<?xml version="1.0" encoding="UTF-8"?>
<svg id="Laag_2" data-name="Laag 2" xmlns="http://www.w3.org/2000/svg" xmlns:xlink="http://www.w3.org/1999/xlink" viewBox="0 0 127.65 136.24">
  <defs>
    <style>
      .cls-1 {
        fill: #ef49f2;
      }

      .cls-2 {
        stroke: url(#Naamloos_verloop_125-3);
      }

      .cls-2, .cls-3, .cls-4, .cls-5 {
        fill: none;
        stroke-miterlimit: 10;
        stroke-width: 3px;
      }

      .cls-6 {
        fill: url(#Naamloos_verloop_125-4);
      }

      .cls-7 {
        fill: #f9f9f9;
        font-family: NeueMontreal-Bold, 'Neue Montreal';
        font-size: 41.35px;
        font-weight: 700;
      }

      .cls-3 {
        stroke: url(#Naamloos_verloop_125-2);
      }

      .cls-4 {
        stroke: url(#Naamloos_verloop_127);
      }

      .cls-5 {
        stroke: url(#Naamloos_verloop_125);
      }
    </style>
    <linearGradient id="Naamloos_verloop_125" data-name="Naamloos verloop 125" x1="0" y1="37.62" x2="84.15" y2="37.62" gradientUnits="userSpaceOnUse">
      <stop offset="0" stop-color="#5852f2"/>
      <stop offset="1" stop-color="#ef49f2"/>
    </linearGradient>
    <linearGradient id="Naamloos_verloop_127" data-name="Naamloos verloop 127" x1="79.03" y1="67.68" x2="127.65" y2="67.68" gradientUnits="userSpaceOnUse">
      <stop offset="0" stop-color="#ef49f2"/>
      <stop offset="1" stop-color="#5852f2"/>
    </linearGradient>
    <linearGradient id="Naamloos_verloop_125-2" data-name="Naamloos verloop 125" x1=".35" y1="96.27" x2="83.82" y2="96.27" xlink:href="#Naamloos_verloop_125"/>
    <linearGradient id="Naamloos_verloop_125-3" data-name="Naamloos verloop 125" x1="11.06" y1="66.55" x2="94.41" y2="66.55" xlink:href="#Naamloos_verloop_125"/>
    <linearGradient id="Naamloos_verloop_125-4" data-name="Naamloos verloop 125" x1="29.96" y1="66.55" x2="85.64" y2="66.55" xlink:href="#Naamloos_verloop_125"/>
  </defs>
  <g id="Links_midden" data-name="Links midden">
    <path class="cls-5" d="M70.95,8.25l10.65,19.73c-7.64-.19-15.28-.37-22.92-.56-4.01,6.55-8.02,13.1-12.03,19.64-9.03,1.23-18.07,2.45-27.1,3.68-2.27,5.18-4.54,10.35-6.81,15.53-3.67-6.85-7.34-13.71-11.01-20.56,7.92-12.88,15.85-25.76,23.77-38.65,15.15.39,30.3.79,45.45,1.18Z"/>
    <path class="cls-4" d="M81.6,27.98c7.49.23,14.98.46,22.47.69,7.28,13.31,14.57,26.63,21.85,39.94-7.93,12.94-15.85,25.88-23.78,38.82l-20.54-.53,10.67-26.79c-3.56-4.44-7.11-8.88-10.67-13.33,3.69-6.18,7.39-12.35,11.08-18.53-3.69-6.76-7.39-13.51-11.08-20.27Z"/>
    <path class="cls-3" d="M12.74,66.55l-10.66,25.29c9.44,11.96,18.87,23.93,28.31,35.89,14.91-2.06,29.82-4.12,44.73-6.18,2.16-5.26,4.32-10.52,6.49-15.78-8.32-.22-16.65-.43-24.97-.65-3.61-6.51-7.22-13.01-10.83-19.52-7.47-.28-14.94-.56-22.41-.84-3.55-6.07-7.1-12.15-10.66-18.22Z"/>
    <path class="cls-2" d="M46.65,47.07c4.01-6.55,8.02-13.1,12.03-19.64,7.64.19,15.28.37,22.92.56,3.69,6.76,7.39,13.51,11.08,20.27-3.69,6.15-7.39,12.29-11.08,18.44,3.56,4.47,7.11,8.94,10.67,13.41-3.35,8.52-6.71,17.04-10.06,25.57-8.53-.18-17.05-.36-25.58-.54-3.64-6.51-7.29-13.01-10.93-19.52-7.44-.28-14.87-.56-22.31-.84l-10.66-18.5c2.27-5.18,4.54-10.35,6.81-15.53,9.03-1.23,18.07-2.45,27.1-3.68Z"/>
    <circle class="cls-6" cx="57.8" cy="66.55" r="27.84"/>
    <circle class="cls-1" cx="24.56" cy="6.02" r="6.02"/>
    <circle class="cls-1" cx="104.92" cy="27.42" r="6.02"/>
    <circle class="cls-1" cx="18.54" cy="49.9" r="6.02"/>
    <circle class="cls-1" cx="29.48" cy="130.22" r="6.02"/>
    <circle class="cls-1" cx="102.85" cy="108.83" r="6.02"/>
    <circle class="cls-1" cx="93.67" cy="80.5" r="6.02"/>
    <text class="cls-7" transform="translate(43.1 80.15)"><tspan x="0" y="0">S</tspan></text>
  </g>
</svg>